/* XPM */
static char *_99d798d896b4aedf2063c9e63522cc7crpzeiztX0i9LPbv[] = {
/* columns rows colors chars-per-pixel */
"64 64 211 2 ",
"   c None",
".  c #BD1407",
"X  c #CC0C03",
"o  c #D50500",
"O  c #DB0500",
"+  c #D30B02",
"@  c #DB0C02",
"#  c #D60F08",
"$  c #C31306",
"%  c #CE1404",
"&  c #CB1C06",
"*  c #C21805",
"=  c #D21203",
"-  c #D31C04",
";  c #DE1A03",
":  c #D9140B",
">  c #DC1505",
",  c #DA1B12",
"<  c #E20A01",
"1  c #E30500",
"2  c #E41B02",
"3  c #E31909",
"4  c #E71813",
"5  c #CF2206",
"6  c #D42406",
"7  c #D92304",
"8  c #D52906",
"9  c #DB2B06",
"0  c #DE3306",
"q  c #DD3E08",
"w  c #DD2715",
"e  c #E32403",
"r  c #EC2302",
"t  c #E32C05",
"y  c #E32C0D",
"u  c #E82B0A",
"i  c #E23405",
"p  c #EA3506",
"a  c #E43A06",
"s  c #EA3B07",
"d  c #E13609",
"f  c #EC330C",
"g  c #E43C08",
"h  c #E93B08",
"j  c #F43208",
"k  c #F13908",
"l  c #E12D13",
"z  c #E63919",
"x  c #F73B19",
"c  c #DE3B31",
"v  c #E42F23",
"b  c #E82A25",
"n  c #E73629",
"m  c #F03F2A",
"M  c #E43934",
"N  c #E64407",
"B  c #EA4207",
"V  c #E44309",
"C  c #EA4308",
"Z  c #E64C0B",
"A  c #EB4C09",
"S  c #F34207",
"D  c #F54509",
"F  c #F34E0A",
"G  c #F84B0A",
"H  c #FA4508",
"J  c #ED5306",
"K  c #EC540A",
"L  c #ED5B0B",
"P  c #EE5D07",
"I  c #F4540A",
"U  c #FE530B",
"Y  c #F35A0B",
"T  c #FD5C0B",
"R  c #E6421B",
"E  c #EC5C13",
"W  c #F95A16",
"Q  c #EE630C",
"!  c #F2640C",
"~  c #FD640C",
"^  c #F36B0C",
"/  c #FD6A0D",
"(  c #F66304",
")  c #F5740D",
"_  c #FD730D",
"`  c #F67B0E",
"'  c #FC7C0E",
"]  c #F57707",
"[  c #ED6814",
"{  c #ED6B18",
"}  c #F36C14",
"|  c #F96A15",
" . c #F47513",
".. c #FD7D13",
"X. c #F77718",
"o. c #E4452A",
"O. c #F14728",
"+. c #EA5B28",
"@. c #E84636",
"#. c #F1413B",
"$. c #ED5439",
"%. c #ED6924",
"&. c #F56A29",
"*. c #EF7B23",
"=. c #FD7028",
"-. c #EE6539",
";. c #F86C31",
":. c #F07834",
">. c #E44C44",
",. c #EA4B45",
"<. c #F14C45",
"1. c #EC5B44",
"2. c #FA5448",
"3. c #F86646",
"4. c #F4784A",
"5. c #F4725E",
"6. c #EE7E6A",
"7. c #F47964",
"8. c #F6820F",
"9. c #FB840E",
"0. c #FB8A0D",
"q. c #F98505",
"w. c #FC930C",
"e. c #FB9A0E",
"r. c #F8970B",
"t. c #F58310",
"y. c #FC8411",
"u. c #FB8C11",
"i. c #FB8615",
"p. c #FC9313",
"a. c #FD9D13",
"s. c #FD9219",
"d. c #F99818",
"f. c #FBA20E",
"g. c #FDA80B",
"h. c #FDB50E",
"j. c #FCBE0D",
"k. c #FAB206",
"l. c #FDA314",
"z. c #FEAC13",
"x. c #FDA41C",
"c. c #FEB313",
"v. c #FDBC14",
"b. c #FFB31C",
"n. c #F78F22",
"m. c #FF9129",
"M. c #F98737",
"N. c #FB9332",
"B. c #FF9B3F",
"V. c #FDA626",
"C. c #FEB823",
"Z. c #FCA735",
"A. c #FEA837",
"S. c #FFB33B",
"D. c #FEC30D",
"F. c #FCC500",
"G. c #FFD70E",
"H. c #FFDB00",
"J. c #FFC315",
"K. c #FFCB14",
"L. c #FEC21B",
"P. c #FFC918",
"I. c #FFD313",
"U. c #FFDD12",
"Y. c #FDD51B",
"T. c #FFDB1C",
"R. c #FFE10F",
"E. c #FFE313",
"W. c #FFE915",
"Q. c #FEE41D",
"!. c #FFFA18",
"~. c #FFCF21",
"^. c #FDC120",
"/. c #FFD92A",
"(. c #FFD828",
"). c #FFCC32",
"_. c #FFC939",
"`. c #FFD032",
"'. c #FFDA38",
"]. c #FFEF21",
"[. c #FFE529",
"{. c #FFE421",
"}. c #FFF323",
"|. c #FEF32A",
" X c #FFFF29",
".X c #FEE537",
"XX c #FDF33A",
"oX c #F28E49",
"OX c #F79343",
"+X c #F79757",
"@X c #FBA342",
"#X c #F58366",
"$X c #FDAD60",
"%X c #FCB261",
"&X c #FBB374",
"*X c #FBBA76",
"=X c #FFC84D",
"-X c #FED54D",
";X c #FED947",
":X c #FFEE4E",
">X c #FFE756",
",X c #FFFA50",
"<X c #FFCF65",
"1X c #FFD56B",
"2X c #FEE868",
"3X c #FFFB63",
"4X c #FFEB73",
"5X c #FDCC82",
"6X c #FFD480",
"7X c #FFE68E",
"8X c #FFFFBE",
/* pixels */
"                                                                                                                                ",
"                                                                                                                                ",
"                                                                                                                                ",
"                                                                                                                                ",
"                                                                                                                                ",
"                                                                                                                                ",
"                                                                                                                                ",
"                                                                                                                                ",
"                                                                                                                                ",
"                                                                                                                                ",
"                                                                                                                                ",
"                                                                                                                                ",
"                                                                                                                                ",
"                                ,                                                                                               ",
"                              O v                                                                                               ",
"                              @ c                                                                                               ",
"                              < M                                                                                               ",
"                              o n                                                                                               ",
"                              O 4 ,.                                                                                            ",
"                              o O M                                                                                             ",
"                                1 : ,.                                                                                          ",
"                                O o b <.                                                                                        ",
"                                @ o o M ,.                                                                                      ",
"                                + # o , <.                                <                                                     ",
"                                @ $ + o v @.                              @                                 @                   ",
"                              O @ . X o # m n                             @                                 @ e                 ",
"                              O X . % + o w z                             2                                 3 z                 ",
"                              < $ $ $ X X : z l                           r 9                             O m                   ",
"              <.2.          @ @ . . $ + $ # u w                           9 x                             3 $.                  ",
"              >.2.<.        < $ * $ $ # $ % y y                           d u $.                        < , 7.                  ",
"              1.o.O.      2 ; . 9 5 $ - $ & t d                           V e z 7.          e           ; ; 7.#X                ",
"              3.o.f +.  e r 5 5 V 8 & & & - p a     p                     V u ; 3.          e           e 2 z #X                ",
"            -.-.R j     j 8 & Z B 6 5 5 5 7 k B   h K                     s t 9 f 4.        s s         t j e R #X              ",
"          -.;.+.a S   p f - Z ! i 9 6 9 6 0 H     W                     C D 0 9 d W           A C         s a t h 4.            ",
"        %.=.%.Z D B   D 9 q  .a g d 9 9 9 C C   G :.                    C B 0 6 a G [         [ T         C a 6 g B &.          ",
"        =.{ E Z U   F G 0 ' Y   ~ A 0 d d I I B W oX                  I F A 0 9 0 F L         *.} F       A 0 ; h A I }         ",
"      X. .{ K Z I   Y D Z ^   Y } ! d d A L K s W OX                L T K N 0 a i J Y         B.[ I Y     L g   d Z K ~ )       ",
"    ..y. .Q Q V G ! Q F ~ ^     M.i.Z V L Q A g A m.            Y ! / L K g C   B A !       &XM.Q K / ~     T   A S K ! ^       ",
"    ` 8.) ^ L Z A L ) K /       +XA.( V Q ^ A A A ) s.        ! ~ _ L K V U     =.F  .    &XOX^ Q Z ^ ^    .~ A   W C ^ _       ",
"    0.8.` ` L K K K Y K /         *Xd.L K Q I K K I y.u.      ~ K K B A ~ L   +XM.( `   %XN.] ^ K J ) '   ` ~ Y   M.| J y...    ",
"    p.9.8.t.Q L L L L L _         $X1Xu.E L ~ Q Y ~ L y.    _ K Y Y L / !     @XX.) d.Z.s.` ^ L L Y ) )   t.Y |     N.Y y.y.    ",
"    a.s.p.u.! Q _ t.! / / p.        5X=Xq.L ..    / ! / u.u./ Y `   9.)     n.V.^ p.l.p.t.! / ~ Q _ ! ) p.^ P i.    Z.y.' a.    ",
"    a.a.a.l.) ! z.v.  ' ^ e.        @X4Xz.^ 0.d.    _ ^ ) y.^ p.    9.      l.s.` l.l.u.^ ^ _   _ ^ ^ 9...! ! V.      s.0.      ",
"    z.z.l.c.8.! T.~.  ` ' 0.          >X`.] y.z.    ) ' ) ) x.V.  u.      r.C.@X0.z.a.) ) '     )   ) ' e.^ a.C.      p.p.      ",
"      v.l.v.a.) (.XX    ' w.          )..Xq.w.J.      9.9.9._.            g.<XA.q.b.t.t.u.        0.9.e.  c.z.      z.l.l.      ",
"      P.c.v.L.0.x.3X      e.          /.|.e.z.T.      e.w.l.).            z.1Xb.r.l.r.l.          l.e.z.  z.        f.z.        ",
"        /.'.'.z.e.:X2X                Q.E.g.Y.Q.        e.J.Y.            z.;XP.f.f.J.J.          v.z.h.            h.c.        ",
"          3X4Xv.k.).4X                U.j.Y.}.{.        h.K.Y.              /.I.h.h.T.            Q.K.D.            v.v.        ",
"          ;X8X-XF.'.4X                  j. X|.Y.        K.D.W.                U.D.U.Q.            XX}.G.          K.I.J.        ",
"            7X:XH..X                    }.|.            E.U.!.U.              I.  D.!.            ,XQ.            E.U.K.K.      ",
"              I.                        }.              E.R.  R.                    I.          [.[.              E.W.W.I.I.    ",
"                                                                                                                      W.    I.  ",
"                                                                                                                                ",
"                                                                                                                                ",
"                                                                                                                                ",
"                                                                                                                                ",
"                                                                                                                                ",
"                                                                                                                                ",
"                                                                                                                                ",
"                                                                                                                                ",
"                                                                                                                                ",
"                                                                                                                                ",
"                                                                                                                                ",
"                                                                                                                                "
};
