/* XPM */
static char *_7b6d3f7345e437fc3ebc61708be1d05xnJhKWWBiu8X5lnI[] = {
/* columns rows colors chars-per-pixel */
"64 64 240 2 ",
"   c None",
".  c #560A09",
"X  c #4E0305",
"o  c #660D0A",
"O  c #76150E",
"+  c #771A12",
"@  c #6B170F",
"#  c #7A2416",
"$  c #8B1B13",
"%  c #AB1711",
"&  c #842518",
"*  c #952719",
"=  c #93341A",
"-  c #862309",
";  c #A9361B",
":  c #B02B17",
">  c #9B3821",
",  c #8A3020",
"<  c #A93722",
"1  c #B43420",
"2  c #CA140B",
"3  c #D91D10",
"4  c #E71709",
"5  c #CA2615",
"6  c #D82916",
"7  c #D93619",
"8  c #DB350F",
"9  c #E3280D",
"0  c #E93C08",
"q  c #EA3C15",
"w  c #C43921",
"e  c #DF3D21",
"r  c #96411E",
"t  c #A8482A",
"y  c #B54928",
"u  c #BA5726",
"i  c #B75C32",
"p  c #AB502C",
"a  c #B86834",
"s  c #AA481F",
"d  c #DA4316",
"f  c #D65312",
"g  c #EB480C",
"h  c #F44907",
"j  c #EB570A",
"k  c #E2431B",
"l  c #EE5512",
"z  c #F9660A",
"x  c #E77B0C",
"c  c #F77909",
"v  c #E76A18",
"b  c #F76D16",
"n  c #E47818",
"m  c #F2700D",
"M  c #C74525",
"N  c #DA4727",
"B  c #D5532A",
"V  c #C65931",
"C  c #E14B26",
"Z  c #EB5925",
"A  c #E05A34",
"S  c #F15329",
"D  c #CA762C",
"F  c #D46F3B",
"G  c #D47938",
"H  c #CF6830",
"J  c #E66924",
"K  c #F86B2A",
"L  c #F87825",
"P  c #E66435",
"I  c #E7783A",
"U  c #EE7532",
"Y  c #D97018",
"T  c #CB7844",
"R  c #DE7340",
"E  c #F97E42",
"W  c #ED7C46",
"Q  c #DE8418",
"!  c #FE8808",
"~  c #FC990B",
"^  c #E78618",
"/  c #F78A16",
"(  c #EB971C",
")  c #FC9717",
"_  c #ED8A0A",
"`  c #FCAA09",
"'  c #FCB70B",
"]  c #EEA41E",
"[  c #F9A918",
"{  c #FCB818",
"}  c #CE823B",
"|  c #D8883A",
" . c #D4943D",
".. c #FF8323",
"X. c #F88A2A",
"o. c #FD9725",
"O. c #E68739",
"+. c #FC863A",
"@. c #FC9537",
"#. c #E98F2A",
"$. c #ECA62A",
"%. c #FAA928",
"&. c #F8B828",
"*. c #FBA636",
"=. c #FEB937",
"-. c #E8AC32",
";. c #FFCE09",
":. c #FFCB08",
">. c #FFD20E",
",. c #FCC717",
"<. c #FFD213",
"1. c #FED918",
"2. c #FEE919",
"3. c #FBC829",
"4. c #FFD424",
"5. c #FFDA2D",
"6. c #F9D429",
"7. c #FFC334",
"8. c #FCC439",
"9. c #FFD333",
"0. c #FEDD35",
"q. c #FFDC3D",
"w. c #FCD437",
"e. c #EECC26",
"r. c #FCE128",
"t. c #FEF72A",
"y. c #FEE43C",
"u. c #FFEC3C",
"i. c #FEE733",
"p. c #FEFE34",
"a. c #FFFE3C",
"s. c #FFF237",
"d. c #DA8B4A",
"f. c #DD9744",
"g. c #DE9453",
"h. c #CE8942",
"j. c #EB8B46",
"k. c #F88A47",
"l. c #E79748",
"z. c #FF9C44",
"x. c #F99746",
"c. c #E99956",
"v. c #FA9B57",
"b. c #EBA449",
"n. c #FCAA46",
"m. c #FBB846",
"M. c #E9A455",
"N. c #FBA75B",
"B. c #FDB758",
"V. c #E8B352",
"C. c #E89F6B",
"Z. c #F2A56B",
"A. c #F4AC6D",
"S. c #F8AA67",
"D. c #FFB462",
"F. c #FDBA69",
"G. c #EDA973",
"H. c #F2AC74",
"J. c #F4B173",
"K. c #FBBD7A",
"L. c #FAB875",
"P. c #E7A369",
"I. c #FFCD44",
"U. c #FAC847",
"Y. c #FFD542",
"T. c #FEDD41",
"R. c #FEDB4C",
"E. c #FDD24E",
"W. c #FDC857",
"Q. c #FFDB54",
"!. c #FED559",
"~. c #FFE443",
"^. c #FFEB44",
"/. c #FFE34C",
"(. c #FFEB4C",
"). c #FFF145",
"_. c #FFFD43",
"`. c #FFFE4B",
"'. c #FFF44A",
"]. c #FFE353",
"[. c #FFEC52",
"{. c #FFE45B",
"}. c #FFEB5C",
"|. c #FFF254",
" X c #FFFD54",
".X c #FFF45C",
"XX c #FFFE5B",
"oX c #FDC46D",
"OX c #FCC966",
"+X c #FFDC6D",
"@X c #FED566",
"#X c #FDC375",
"$X c #FECA75",
"%X c #FECD7B",
"&X c #FCC67B",
"*X c #FFDA74",
"=X c #FED37C",
"-X c #FEDB7D",
";X c #FFD375",
":X c #FFEC64",
">X c #FEE46C",
",X c #FFED6D",
"<X c #FFE360",
"1X c #FFF362",
"2X c #FFFE64",
"3X c #FFFD6A",
"4X c #FFF56B",
"5X c #FFE375",
"6X c #FFEC73",
"7X c #FEE37B",
"8X c #FFEC7C",
"9X c #FFF473",
"0X c #FFFE73",
"qX c #FFF57B",
"wX c #FFFD7B",
"eX c #F6BC80",
"rX c #FFCC84",
"tX c #FBC584",
"yX c #FFDC86",
"uX c #FFD58C",
"iX c #FFDB8C",
"pX c #FFD285",
"aX c #FFDC94",
"sX c #FFD794",
"dX c #FFE484",
"fX c #FFEB8D",
"gX c #FFE589",
"hX c #FFF484",
"jX c #FFFD84",
"kX c #FFF48D",
"lX c #FFFE8B",
"zX c #FFE396",
"xX c #FFEB95",
"cX c #FFEC9A",
"vX c #FFE49A",
"bX c #FFF495",
"nX c #FFFC93",
"mX c #FFF49A",
"MX c #FFFC9B",
"NX c #FFF7A1",
/* pixels */
"                                                                                                                                ",
"                                                                                                                                ",
"                                                                                h                                               ",
"                                                                              z h                                               ",
"                                                                            c j                                                 ",
"                                                                          ~ x                                                   ",
"                                                                        ` ` f                                                   ",
"                                                                      ` :._ g                                                   ",
"                                                                    ' ,.,.x 0                                                   ",
"                                                                  ` 4.9.,.x                                                     ",
"                                                                ~ 5.T.T.3.^                                                     ",
"                                                                4.T.].T.4.^                                                     ",
"                                                              { ^.[.}.~.5.^                                                     ",
"                                                            ) i.[.:X1Xy.r.(                                                     ",
"                                                            1.).:X9X1X^.i.(                                                     ",
"                                                            s.[.4XqX1X).s.]                                                     ",
"                                                          { _.1X9XjX1X'.a.[                                                     ",
"                                                          5. X3XjXjX2X'.a.&.                                                    ",
"                                                          a.XXwXjXlX2X`.a.e.                                                    ",
"                                                        %.`.2XwXlXlX3X X_.r.                                                    ",
"                                                        i.XX0XjXnXlX3X X_.t.              h                                     ",
"                                                        _.2XwXlXMXlX3XXX`.p.v           c m                                     ",
"                                                      9.XX0XjXnXMXlX0XXX`.p./           ` g                                     ",
"                                                    o.`.2XwXlXnXMXjX0X2X`.a.(           ' j         h                           ",
"                                                    u.XX0XjXnXMXMXlX0X2X Xa.]         ! ' j       ~ v                           ",
"                                                  9.XX3XjXlXMXMXMXjX0X2X Xa.e.        ! ;.m     ! ' 0                           ",
"                                                3. X3XwXjXbXMXNXMXjX0X3X X_.3.        ~ <.m     ' {                             ",
"                                              3.`.1XqXjXnXMXMXMXnXjX,X:X|._.6.        ` 2._     ;.,.                            ",
"                                            3.`.1X9XhXnXbXMXMXMXnX+Xm.4X|.).6.        ` 2.[     1.1.j                           ",
"                            ! h           3.^.:X9XhXkXbXMXmXMXNX@X#.>X4X[.^.6.        { t.&.    r.2.z                           ",
"                            '           { u.{.6XhXkXbXmXmXmXNX*X-.b.qX,X].~.3.l       ,.t.6.    s.t.x                           ",
"                          z :.!       ) w.Q.>X8XfXxXmXmXmXNX+X9.$.B.9X:X].R.&.g       6._.i.    '.t.(                           ",
"                          c >.'       &.Y.@X5XfXxXcXmXcXNXdX9.0.$.W.9X<XR.w.$.g       s.`._.    XXp.[                           ",
"                            >.>.!   ) 7.E.+XdXfXxXcXcXcXxXR.0.0.-.!.>XQ.I.8.X.9     %._.XX`.X.B.2Xa.{                           ",
"                            1.1.<.  ) 8.W.-XdXzXxXcXcXcX*Xy.^.y.&.W.Q.I.8.%.f       u.XX2XXX@X9X3Xa.e.                          ",
"                            <.2.2.,.) m.OX=XyXzXxXzXcXvX].^.(.i.e.m.8.7.%.J q     8.XX3X0XjXlXwX3X_.e.                          ",
"                            ,.t.t.r.o.m.OX=XyXzXvXvXvXgX(.|.(.u.3.m.8.%.L 6 9   w.XX3XwXlXnXlXjX3Xa.e.                          ",
"                            { a._.0.o.n.F.=XiXzXzXaXvX-X|..X|.s.w.%.=.L 6 6 %.`.2X3XwXjXnXnXnXlXXXa.e.                          ",
"                            [ _. Xq./ n.F.%XiXaXvXaXaX:X.X.X.X).i.$.o.7 d -. X2X9XqXhXnXnXMXnX9X'.s.$.                          ",
"                            o.`.XX].L x.D.&XuXsXaXaX=X.X1X1X}.^.y.o.J 3 ] R.9X>X6XkXbXbXkX9X|.i.i.3.Q                           ",
"                            %.XX3X1XL @.N.#XrXsXsXuX:X1X,X,X}.^.y.#.6 7 e.@XqXU.7XbXmXhX}.^.i.5.] Y v                           ",
"                            w.2X0XqX..+.N.L.rXsXuX{..X6X6X6X{./.~.#.3 x.u.OX6XU.gXmX7X].T.0.3.^ f f 0                           ",
"                            '.2XwXlX@.K x.S.tXrX!.}.6X6X8X5X{.R.q.U d *X~.OX,XU.iX>XR.T.9.&.n d 8                               ",
"                          =..X9XhXnXF.c *.S.L.W.].>X7X7XdX*XQ.E.U.J W gXR.W.+X=.W.!.U.e.&.J w 9                                 ",
"                        o.(.:X8XkXbXyX/ %.v.B.W.+X*X*X-XyX+XE.U.*.J J.yXQ.@X!.&.V.8.=.%.J 7 9                                   ",
"                      o.Y.!.5XdXfXcXNXm.) x.m.OX;X*X;X-X-X!.W.m.b.@.pX=X@XW.m.$.*.=.%.L 6 9                                     ",
"                    ) 7.W.@X-XgXxXxXcX$X/ *.N.oX%X=X=X=X@XW.W.n.*.x.%X;XoXU.m.X.#.*...7 6                                       ",
"                  z [ *.W.;XyXgXzXzXvXyX..@.N.#X%X%X%X=XOXoXD.B.N.M.%X%XoXB.*.L L @.S 5 4                                       ",
"                  z o.n.F.%XuXaXzXaXzX=X@.k.N.L.&X&X&X$XOXoXoXF.A.A.rX%XF.z.K l K K 6 9                                         ",
"                  z ..@.B.#X%XiXiXaXiXB.z.x.v.J.&XK.L.G.L.tXtXJ.Z.A.rXL.@.Z N k K S 6                                           ",
"                    b +.v.B.oX$X$X%X$Xz.x.N.v.H.K.L.J.G.eXtX&XL.Z.Z.L.x.Z C k U K e 3                                           ",
"                    q K U v.N.F.oX$Xz.+.v.N.v.Z.H.J.G.G.L.eXeXJ.v.j.v.U N C O.+.S 6 4                                           ",
"                      q K E v.N.F.k.K k.v.S.S.C.G.G.G.P.S.A.S.c.O.J W A N x.@.U e 2                                             ",
"                      4 e S E k.x.Z J k.N.J.L.H.C.P.c.l.x.b.l.l.O.J F N I M.O.P w 2                                             ",
"                        4 7 C W W Z Z W c.Z.H.A.g.f.| O.l.M.l.d.G B w B M.l.R B : 2                                             ",
"                            5 w A B M B R j.c.c.P.d.} |  .l.M.G H M : T V.f.F w :                                               ",
"                              5 < V w 1 V R d.g.g.d.D D D | d.h.M ; $ | l.} V ; %                                               ",
"                                2 % < < < y i T h.T H u u u T T u * - a } i < & %                                               ",
"                                    : * * * > t p i t ; * * t p > # + r i > & O                                                 ",
"                                      x ; $ + # , # # @ @ $ & & @ @ O & , + . -                                                 ",
"                                ;.;.<.1.6.#.t + o . . X = b.y @ X o p = o X # -.y.4.<.>.:.:.                                    ",
"                            ;.;.;.;.1.0.y.(.].m.} p , a +X9X:Xf.h.V.,XW.h. .E.(.T.0.4.<.;.>.;.                                  ",
"                                  ;.>.<.4.5.0.~.^.(.(.[././.].[.[.(./.~.^.^.y.6.4.<.>.>.;.                                      ",
"                                                    <.<.<.<.<.<.<.<.                                                            "
};
