/* XPM */
static char *bd58b331bac74e5380fab5a7aa47fa2ecvNcqucQtocQKvRa[] = {
/* columns rows colors chars-per-pixel */
"64 64 128 2 ",
"   c None",
".  c #FCAF06",
"X  c #FCB007",
"o  c #FCB40B",
"O  c #FDB80F",
"+  c #FCB711",
"@  c #FDBB12",
"#  c #FDC017",
"$  c #FEC41B",
"%  c #FEC91F",
"&  c #FECD23",
"*  c #FECC29",
"=  c #FFD126",
"-  c #FFD62C",
";  c #FFD82F",
":  c #FDCC31",
">  c #FFD532",
",  c #FFD933",
"<  c #FFD53B",
"1  c #FFDB3B",
"2  c #FFDD43",
"3  c #FFDF4A",
"4  c #FFDD53",
"5  c #FFE04F",
"6  c #FFE154",
"7  c #FFE45C",
"8  c #FFE663",
"9  c #FFE769",
"0  c #FFE86C",
"q  c #FFEA72",
"w  c #FFE971",
"e  c #FFEA75",
"r  c #FFEB76",
"t  c #FFEA72",
"y  c #FFEB78",
"u  c #FFEC79",
"i  c #FFEC7B",
"p  c #FFED7C",
"a  c #FFED7D",
"s  c #FFED7E",
"d  c #FFED7F",
"f  c #FFED7E",
"g  c #FFED80",
"h  c #FFEE80",
"j  c #FFEE81",
"k  c #FFEE82",
"l  c #FFEE83",
"z  c #FFEF84",
"x  c #FFEF85",
"c  c #FFEF86",
"v  c #FFEE83",
"b  c #FFEF88",
"n  c #FFF087",
"m  c #FFF088",
"M  c #FFF08A",
"N  c #FFF08B",
"B  c #FFF18B",
"V  c #FFF18C",
"C  c #FFF18D",
"Z  c #FFF18C",
"A  c #FFF290",
"S  c #FFF393",
"D  c #FFF395",
"F  c #FFF396",
"G  c #FFF496",
"H  c #FFF497",
"J  c #FFF395",
"K  c #FFF498",
"L  c #FFF499",
"P  c #FFF49A",
"I  c #FFF59A",
"U  c #FFF59B",
"Y  c #FFF59C",
"T  c #FFF59D",
"R  c #FFF69D",
"E  c #FFF69E",
"W  c #FFF59B",
"Q  c #FFF6A0",
"!  c #FFF6A1",
"~  c #FFF7A1",
"^  c #FFF7A2",
"/  c #FFF7A3",
"(  c #FFF7A4",
")  c #FFF7A5",
"_  c #FFF7A2",
"`  c #FFF8A5",
"'  c #FFF8A6",
"]  c #FFF8A7",
"[  c #FFF8A6",
"{  c #FFF8A8",
"}  c #FFF9A8",
"|  c #FFF9A9",
" . c #FFF9AA",
".. c #FFF9AB",
"X. c #FFF9AC",
"o. c #FFF9AD",
"O. c #FFF9AF",
"+. c #FFF9AA",
"@. c #FFF9B1",
"#. c #FFF9B2",
"$. c #FFF9B3",
"%. c #FFF9B5",
"&. c #FFF9B6",
"*. c #FFF9B4",
"=. c #FEF9B8",
"-. c #FEF9BD",
";. c #FEFABD",
":. c #FEF9BE",
">. c #FEFABE",
",. c #FEFABC",
"<. c #FEFAC0",
"1. c #FEFAC4",
"2. c #FEFAC3",
"3. c #FEFAC9",
"4. c #FEFACC",
"5. c #FDFACE",
"6. c #FEFACF",
"7. c #FEFACC",
"8. c #FEFAD2",
"9. c #FDFBD5",
"0. c #FDFBD4",
"q. c #FDFBDA",
"w. c #FDFBDC",
"e. c #FDFBDC",
"r. c #FDFBE3",
"t. c #FDFBEC",
"y. c #FCFCF3",
"u. c #FCFCFA",
/* pixels */
"                                                                                                                                ",
"                                                                                                                                ",
"                                                                                                                                ",
"                                                                                                                                ",
"                                                                                                                                ",
"                                                                                                                                ",
"                                                                                                                                ",
"                                                                                                                                ",
"                                                                                                                                ",
"                                                                                                                                ",
"                                                                                                                                ",
"                                                                                                                                ",
"                                                                                                                                ",
"                                                                                                                                ",
"                                              . .                                                                               ",
"                                              . .                                                                               ",
"                                              . . o                                                                             ",
"                                              . . o                                                                             ",
"                                                . .                                             .                               ",
"                                                . .                                               .                             ",
"                                                  .                                               .                             ",
"                                                  X                                                                             ",
"                                                  X                                                                             ",
"                                                  +                                                                             ",
"                                                o #                                     o @ O                                   ",
"                                              . O %                                   . @ # o                                   ",
"                                              . + &                                 . X # % + X                                 ",
"                                            . . O &                                 . . @ & % o .                               ",
"                                            . . O & -                               . . o % = & # o .                           ",
"                                          . X X + =     . . . .                       . X @ = - - & @ o X                       ",
"                                          . . X $ =   X . . . . X                     . . X & - - - - % o X                     ",
"                                        . . . + = -   X . . X o X o O +               . . X $ - - - - = # o                     ",
"                                      . X X X $ = - X . . . X X X X + # #           X . . . $ - - - - - % o                     ",
"                                  . . . X X X % - - + X . . o O o o o @ % @         X . o # - - - - - - # .                     ",
"                                . . . . X X X % - - & @ X o # * < * % o % %         X + % = - - - - - % o .                     ",
"                              . . . . . . X X = - - > = % $ = 5 3 2 * @ & % @       o % - - - - - - - # . .                     ",
"                              . . . . X o O $ - - - - - - - - 1 2 > @ o # +       X O = - - , - - - = # X X                     ",
"                              . . X o $ = = - - - - - - - - - , > @ o o + o     + . % - , - - - - ; - $ . X .                   ",
"                              . X @ = - ; - ; - - ; - ; - - = = & $     X . @ = - * , 5 5 - - - ; - - = o X . .                 ",
"                              . o & - - - ; - , ; , - - - - $ o         . o % 2 7 9 q s r 6 > - - ; ; - $ X . . .               ",
"                              . O = - - - - 1 5 1 , ; - ; % o           . @ > 8 M J R R P c 6 , - - ; - = O X X X .             ",
"                              . o = - - 1 5 5 5 1 ; - ; - % X       . . . & 3 l R } X.} { R c 7 1 ; - - - & # o o o             ",
"                              . o = - , 5 7 7 5 ; - - ; ; = O X . . . o + 1 0 J } X.} X.X.} R l 5 - - - - - = $ o O             ",
"                            . . o & - , 6 9 7 , - ; - - - - # X . . o # = 6 d I } } X.} } } ) A 6 ; - - - - - - # +             ",
"              . X         X X X o % ; 1 7 0 6 1 - ; - ; - - & + . . @ = , 6 u A Q } } X.} X.} R 9 , - ; - - - - & O             ",
"              . X X       X o X X $ - 1 8 9 5 ; ; - ; - , 1 > # . . @ = , 2 7 0 c R } X.X.} } Q u 1 - - - - - - % +             ",
"            . . o X X X X O O o X $ - 1 8 9 5 - - , - 1 7 7 3 * o . o & - - , , 3 c Q } } X.} ' n 5 ; - - - - - =               ",
"          # @ @ o . X o @ $ # X X $ - 1 8 9 5 - - 1 5 9 n M i 3 + . . + = - - - - 7 I } X.} X.} S 6 - ; - = % &                 ",
"        & & % @ o X . # = = % X o = - , 8 t 7 - - 1 9 C R R F t * X X X $ = - - - 2 b } X.X.X.} I 9 , ; - =                     ",
"      & = - & o . o O & - - - % & - - , 8 d 9 1 - 1 r I } } Q C 4 O X X o O $ = - 2 c ) X.%.%.} ^ n 5 - - -                     ",
"    @ = - - - $ + $ = - - - - - - - - , 0 M n 5 - 1 l ` } X.} R e > O X X X X + - 2 b ) $.>.>.$.} H 9 , - =                     ",
"    @ & - - - - - - - - - - 1 , - - - 6 M R J d 6 7 J ' X.} X.' b 3 = % @ O X @ = 6 A { $.<.3.<.O.` B 7 2 -                     ",
"      # $ = - - , , - , , 5 7 6 1 - 2 i Q } } Q I I } X.} X.} } P 8 > - - % # = , 9 I } %.3.0.7.>.O.` M 9 1 -                   ",
"        . # - - , 2 6 7 9 n M n 8 2 0 P { } X.X.} } } X.X.} X.} ) l 2 - - , - - 6 n ' } >.9.e.w.5.&.} ` n 5 - -                 ",
"          @ - - , 7 l A I ' ` E F C R { } X.X.} X.} X.} } X.} X.} I 0 1 1 6 5 6 c Q } X.1.r.r.r.q.1.O.} J 9 , , > - -           ",
"          @ - - , 0 I ' } } } } X.} { } X.} } X.} X.} X.X.} X.} } } J l d M C F ) } X.%.9.t.t.t.r.5.#.} ' C 8 9 7 1 - - & % @   ",
"          & - , 6 M ' } } X.} X.} X.} X.} X.X.} } X.$.$.} } } X.X.X.} ) ) ) } } } X.=.0.r.y.u.y.t.9.=.} } ) R F M 0 6 1 - - &   ",
"        % > 1 7 n ` X.X.X.} X.} X.} X.} X.} } } X.>.1.<.=.$.=.<.<.=.$.} X.X.X.X.} $.7.r.y.u.u.u.t.w.>.X.X.X.} } Q I l 7 - - -   ",
"    & # < 8 d A Q X.$.} } X.} X.} X.X.} } } X.$.<.0.9.9.9.0.0.9.w.0.1.>.<.<.1.1.1.7.r.t.y.u.u.u.y.e.>.} } X.X.} } ' A t 1 - -   ",
"  = - 3 t C Q } $.>.<.>.%.%.%.%.%.X.X.X.X.$.>.3.9.e.r.r.r.e.r.r.r.e.w.w.w.9.w.w.w.e.t.y.u.u.u.u.t.r.3.X.X.} } X.X.} J u 3 - -   ",
"  = , 8 M R } =.<.3.3.7.3.3.1.1.1.<.>.=.<.1.7.9.w.r.r.r.t.r.r.r.r.r.r.e.e.e.e.r.r.t.t.y.y.u.y.y.t.r.0.>.$.} X.} } Q C 8 1       ",
"                                                                                                                                ",
"                                                                                                                                ",
"                                                                                                                                "
};
