/* XPM */
static char *_655600717994[] = {
/* columns rows colors chars-per-pixel */
"64 64 211 2 ",
"   c #BD1407",
".  c #CC0C03",
"X  c #D50500",
"o  c #DB0500",
"O  c #D30B02",
"+  c #DB0C02",
"@  c #D60F08",
"#  c #C31306",
"$  c #CE1404",
"%  c #CB1C06",
"&  c #C21805",
"*  c #D21203",
"=  c #D31C04",
"-  c #DE1A03",
";  c #D9140B",
":  c #DC1505",
">  c #DA1B12",
",  c #E20A01",
"<  c #E30500",
"1  c #E41B02",
"2  c #E31909",
"3  c #E71813",
"4  c #CF2206",
"5  c #D42406",
"6  c #D92304",
"7  c #D52906",
"8  c #DB2B06",
"9  c #DE3306",
"0  c #DD3E08",
"q  c #DD2715",
"w  c #E32403",
"e  c #EC2302",
"r  c #E32C05",
"t  c #E32C0D",
"y  c #E82B0A",
"u  c #E23405",
"i  c #EA3506",
"p  c #E43A06",
"a  c #EA3B07",
"s  c #E13609",
"d  c #EC330C",
"f  c #E43C08",
"g  c #E93B08",
"h  c #F43208",
"j  c #F13908",
"k  c #E12D13",
"l  c #E63919",
"z  c #F73B19",
"x  c #DE3B31",
"c  c #E42F23",
"v  c #E82A25",
"b  c #E73629",
"n  c #F03F2A",
"m  c #E43934",
"M  c #E64407",
"N  c #EA4207",
"B  c #E44309",
"V  c #EA4308",
"C  c #E64C0B",
"Z  c #EB4C09",
"A  c #F34207",
"S  c #F54509",
"D  c #F34E0A",
"F  c #F84B0A",
"G  c #FA4508",
"H  c #ED5306",
"J  c #EC540A",
"K  c #ED5B0B",
"L  c #EE5D07",
"P  c #F4540A",
"I  c #FE530B",
"U  c #F35A0B",
"Y  c #FD5C0B",
"T  c #E6421B",
"R  c #EC5C13",
"E  c #F95A16",
"W  c #EE630C",
"Q  c #F2640C",
"!  c #FD640C",
"~  c #F36B0C",
"^  c #FD6A0D",
"/  c #F66304",
"(  c #F5740D",
")  c #FD730D",
"_  c #F67B0E",
"`  c #FC7C0E",
"'  c #F57707",
"]  c #ED6814",
"[  c #ED6B18",
"{  c #F36C14",
"}  c #F96A15",
"|  c #F47513",
" . c #FD7D13",
".. c #F77718",
"X. c #E4452A",
"o. c #F14728",
"O. c #EA5B28",
"+. c #E84636",
"@. c #F1413B",
"#. c #ED5439",
"$. c #ED6924",
"%. c #F56A29",
"&. c #EF7B23",
"*. c #FD7028",
"=. c #EE6539",
"-. c #F86C31",
";. c #F07834",
":. c #E44C44",
">. c #EA4B45",
",. c #F14C45",
"<. c #EC5B44",
"1. c #FA5448",
"2. c #F86646",
"3. c #F4784A",
"4. c #F4725E",
"5. c #EE7E6A",
"6. c #F47964",
"7. c #F6820F",
"8. c #FB840E",
"9. c #FB8A0D",
"0. c #F98505",
"q. c #FC930C",
"w. c #FB9A0E",
"e. c #F8970B",
"r. c #F58310",
"t. c #FC8411",
"y. c #FB8C11",
"u. c #FB8615",
"i. c #FC9313",
"p. c #FD9D13",
"a. c #FD9219",
"s. c #F99818",
"d. c #FBA20E",
"f. c #FDA80B",
"g. c #FDB50E",
"h. c #FCBE0D",
"j. c #FAB206",
"k. c #FDA314",
"l. c #FEAC13",
"z. c #FDA41C",
"x. c #FEB313",
"c. c #FDBC14",
"v. c #FFB31C",
"b. c #F78F22",
"n. c #FF9129",
"m. c #F98737",
"M. c #FB9332",
"N. c #FF9B3F",
"B. c #FDA626",
"V. c #FEB823",
"C. c #FCA735",
"Z. c #FEA837",
"A. c #FFB33B",
"S. c #FEC30D",
"D. c #FCC500",
"F. c #FFD70E",
"G. c #FFDB00",
"H. c #FFC315",
"J. c #FFCB14",
"K. c #FEC21B",
"L. c #FFC918",
"P. c #FFD313",
"I. c #FFDD12",
"U. c #FDD51B",
"Y. c #FFDB1C",
"T. c #FFE10F",
"R. c #FFE313",
"E. c #FFE915",
"W. c #FEE41D",
"Q. c #FFFA18",
"!. c #FFCF21",
"~. c #FDC120",
"^. c #FFD92A",
"/. c #FFD828",
"(. c #FFCC32",
"). c #FFC939",
"_. c #FFD032",
"`. c #FFDA38",
"'. c #FFEF21",
"]. c #FFE529",
"[. c #FFE421",
"{. c #FFF323",
"}. c #FEF32A",
"|. c #FFFF29",
" X c #FEE537",
".X c #FDF33A",
"XX c #F28E49",
"oX c #F79343",
"OX c #F79757",
"+X c #FBA342",
"@X c #F58366",
"#X c #FDAD60",
"$X c #FCB261",
"%X c #FBB374",
"&X c #FBBA76",
"*X c #FFC84D",
"=X c #FED54D",
"-X c #FED947",
";X c #FFEE4E",
":X c #FFE756",
">X c #FFFA50",
",X c #FFCF65",
"<X c #FFD56B",
"1X c #FEE868",
"2X c #FFFB63",
"3X c #FFEB73",
"4X c #FDCC82",
"5X c #FFD480",
"6X c #FFE68E",
"7X c #FFFFBE",
"8X c None",
/* pixels */
"8X8X8X8X8X8X8X8X8X8X8X8X8X8X8X8X8X8X8X8X8X8X8X8X8X8X8X8X8X8X8X8X8X8X8X8X8X8X8X8X8X8X8X8X8X8X8X8X8X8X8X8X8X8X8X8X8X8X8X8X8X8X8X8X",
"8X8X8X8X8X8X8X8X8X8X8X8X8X8X8X8X8X8X8X8X8X8X8X8X8X8X8X8X8X8X8X8X8X8X8X8X8X8X8X8X8X8X8X8X8X8X8X8X8X8X8X8X8X8X8X8X8X8X8X8X8X8X8X8X",
"8X8X8X8X8X8X8X8X8X8X8X8X8X8X8X8X8X8X8X8X8X8X8X8X8X8X8X8X8X8X8X8X8X8X8X8X8X8X8X8X8X8X8X8X8X8X8X8X8X8X8X8X8X8X8X8X8X8X8X8X8X8X8X8X",
"8X8X8X8X8X8X8X8X8X8X8X8X8X8X8X8X8X8X8X8X8X8X8X8X8X8X8X8X8X8X8X8X8X8X8X8X8X8X8X8X8X8X8X8X8X8X8X8X8X8X8X8X8X8X8X8X8X8X8X8X8X8X8X8X",
"8X8X8X8X8X8X8X8X8X8X8X8X8X8X8X8X8X8X8X8X8X8X8X8X8X8X8X8X8X8X8X8X8X8X8X8X8X8X8X8X8X8X8X8X8X8X8X8X8X8X8X8X8X8X8X8X8X8X8X8X8X8X8X8X",
"8X8X8X8X8X8X8X8X8X8X8X8X8X8X8X8X8X8X8X8X8X8X8X8X8X8X8X8X8X8X8X8X8X8X8X8X8X8X8X8X8X8X8X8X8X8X8X8X8X8X8X8X8X8X8X8X8X8X8X8X8X8X8X8X",
"8X8X8X8X8X8X8X8X8X8X8X8X8X8X8X8X8X8X8X8X8X8X8X8X8X8X8X8X8X8X8X8X8X8X8X8X8X8X8X8X8X8X8X8X8X8X8X8X8X8X8X8X8X8X8X8X8X8X8X8X8X8X8X8X",
"8X8X8X8X8X8X8X8X8X8X8X8X8X8X8X8X8X8X8X8X8X8X8X8X8X8X8X8X8X8X8X8X8X8X8X8X8X8X8X8X8X8X8X8X8X8X8X8X8X8X8X8X8X8X8X8X8X8X8X8X8X8X8X8X",
"8X8X8X8X8X8X8X8X8X8X8X8X8X8X8X8X8X8X8X8X8X8X8X8X8X8X8X8X8X8X8X8X8X8X8X8X8X8X8X8X8X8X8X8X8X8X8X8X8X8X8X8X8X8X8X8X8X8X8X8X8X8X8X8X",
"8X8X8X8X8X8X8X8X8X8X8X8X8X8X8X8X8X8X8X8X8X8X8X8X8X8X8X8X8X8X8X8X8X8X8X8X8X8X8X8X8X8X8X8X8X8X8X8X8X8X8X8X8X8X8X8X8X8X8X8X8X8X8X8X",
"8X8X8X8X8X8X8X8X8X8X8X8X8X8X8X8X8X8X8X8X8X8X8X8X8X8X8X8X8X8X8X8X8X8X8X8X8X8X8X8X8X8X8X8X8X8X8X8X8X8X8X8X8X8X8X8X8X8X8X8X8X8X8X8X",
"8X8X8X8X8X8X8X8X8X8X8X8X8X8X8X8X8X8X8X8X8X8X8X8X8X8X8X8X8X8X8X8X8X8X8X8X8X8X8X8X8X8X8X8X8X8X8X8X8X8X8X8X8X8X8X8X8X8X8X8X8X8X8X8X",
"8X8X8X8X8X8X8X8X8X8X8X8X8X8X8X8X8X8X8X8X8X8X8X8X8X8X8X8X8X8X8X8X8X8X8X8X8X8X8X8X8X8X8X8X8X8X8X8X8X8X8X8X8X8X8X8X8X8X8X8X8X8X8X8X",
"8X8X8X8X8X8X8X8X8X8X8X8X8X8X8X8X> 8X8X8X8X8X8X8X8X8X8X8X8X8X8X8X8X8X8X8X8X8X8X8X8X8X8X8X8X8X8X8X8X8X8X8X8X8X8X8X8X8X8X8X8X8X8X8X",
"8X8X8X8X8X8X8X8X8X8X8X8X8X8X8Xo c 8X8X8X8X8X8X8X8X8X8X8X8X8X8X8X8X8X8X8X8X8X8X8X8X8X8X8X8X8X8X8X8X8X8X8X8X8X8X8X8X8X8X8X8X8X8X8X",
"8X8X8X8X8X8X8X8X8X8X8X8X8X8X8X+ x 8X8X8X8X8X8X8X8X8X8X8X8X8X8X8X8X8X8X8X8X8X8X8X8X8X8X8X8X8X8X8X8X8X8X8X8X8X8X8X8X8X8X8X8X8X8X8X",
"8X8X8X8X8X8X8X8X8X8X8X8X8X8X8X, m 8X8X8X8X8X8X8X8X8X8X8X8X8X8X8X8X8X8X8X8X8X8X8X8X8X8X8X8X8X8X8X8X8X8X8X8X8X8X8X8X8X8X8X8X8X8X8X",
"8X8X8X8X8X8X8X8X8X8X8X8X8X8X8XX b 8X8X8X8X8X8X8X8X8X8X8X8X8X8X8X8X8X8X8X8X8X8X8X8X8X8X8X8X8X8X8X8X8X8X8X8X8X8X8X8X8X8X8X8X8X8X8X",
"8X8X8X8X8X8X8X8X8X8X8X8X8X8X8Xo 3 >.8X8X8X8X8X8X8X8X8X8X8X8X8X8X8X8X8X8X8X8X8X8X8X8X8X8X8X8X8X8X8X8X8X8X8X8X8X8X8X8X8X8X8X8X8X8X",
"8X8X8X8X8X8X8X8X8X8X8X8X8X8X8XX o m 8X8X8X8X8X8X8X8X8X8X8X8X8X8X8X8X8X8X8X8X8X8X8X8X8X8X8X8X8X8X8X8X8X8X8X8X8X8X8X8X8X8X8X8X8X8X",
"8X8X8X8X8X8X8X8X8X8X8X8X8X8X8X8X< ; >.8X8X8X8X8X8X8X8X8X8X8X8X8X8X8X8X8X8X8X8X8X8X8X8X8X8X8X8X8X8X8X8X8X8X8X8X8X8X8X8X8X8X8X8X8X",
"8X8X8X8X8X8X8X8X8X8X8X8X8X8X8X8Xo X v ,.8X8X8X8X8X8X8X8X8X8X8X8X8X8X8X8X8X8X8X8X8X8X8X8X8X8X8X8X8X8X8X8X8X8X8X8X8X8X8X8X8X8X8X8X",
"8X8X8X8X8X8X8X8X8X8X8X8X8X8X8X8X+ X X m >.8X8X8X8X8X8X8X8X8X8X8X8X8X8X8X8X8X8X8X8X8X8X8X8X8X8X8X8X8X8X8X8X8X8X8X8X8X8X8X8X8X8X8X",
"8X8X8X8X8X8X8X8X8X8X8X8X8X8X8X8XO @ X > ,.8X8X8X8X8X8X8X8X8X8X8X8X8X8X8X8X, 8X8X8X8X8X8X8X8X8X8X8X8X8X8X8X8X8X8X8X8X8X8X8X8X8X8X",
"8X8X8X8X8X8X8X8X8X8X8X8X8X8X8X8X+ # O X c +.8X8X8X8X8X8X8X8X8X8X8X8X8X8X8X+ 8X8X8X8X8X8X8X8X8X8X8X8X8X8X8X8X: 8X8X8X8X8X8X8X8X8X",
"8X8X8X8X8X8X8X8X8X8X8X8X8X8X8Xo +   . X @ n b 8X8X8X8X8X8X8X8X8X8X8X8X8X8X+ 8X8X8X8X8X8X8X8X8X8X8X8X8X8X8X8X+ w 8X8X8X8X8X8X8X8X",
"8X8X8X8X8X8X8X8X8X8X8X8X8X8X8Xo .   $ O X q l 8X8X8X8X8X8X8X8X8X8X8X8X8X8X1 8X8X8X8X8X8X8X8X8X8X8X8X8X8X8X8X2 l 8X8X8X8X8X8X8X8X",
"8X8X8X8X8X8X8X8X8X8X8X8X8X8X8X, # # # . . ; l k 8X8X8X8X8X8X8X8X8X8X8X8X8Xe 8 8X8X8X8X8X8X8X8X8X8X8X8X8X8XX z 8X8X8X8X8X8X8X8X8X",
"8X8X8X8X8X8X8X,.1.8X8X8X8X8X+ +     # O # @ y q 8X8X8X8X8X8X8X8X8X8X8X8X8X8 z 8X8X8X8X8X8X8X8X8X8X8X8X8X8X, <.8X8X8X8X8X8X8X8X8X",
"8X8X8X8X8X8X8X:.1.,.8X8X8X8X, # & # # @ # $ t t 8X8X8X8X8X8X8X8X8X8X8X8X8Xs y #.8X8X8X8X8X8X8X8X8X8X8X8X, > 6.8X8X8X8X8X8X8X8X8X",
"8X8X8X8X8X8X8X<.X.o.8X8X8X1 -   8 4 # = # % r s 8X8X8X8X8X8X8X8X8X8X8X8X8XB w l 6.8X8X8X8X8Xw 8X8X8X8X8X- - 6.@X8X8X8X8X8X8X8X8X",
"8X8X8X8X8X8X8X2.X.d O.8Xw e 4 4 B 7 % % % = i p 8X8Xi 8X8X8X8X8X8X8X8X8X8XB y - 2.8X8X8X8X8Xw 8X8X8X8X8Xw 1 l @X8X8X8X8X8X8X8X8X",
"8X8X8X8X8X8X=.=.T h 8X8Xh 7 % C N 5 4 4 4 6 j N 8Xg J 8X8X8X8X8X8X8X8X8X8Xa r 8 d 3.8X8X8X8Xa a 8X8X8X8Xr h w T @X8X8X8X8X8X8X8X",
"8X8X8X8X8X=.-.O.p A 8Xi d = C Q u 8 5 8 5 9 G 8X8XE 8X8X8X8X8X8X8X8X8X8XV S 9 8 s E 8X8X8X8X8XZ V 8X8X8X8Xa p r g 3.8X8X8X8X8X8X",
"8X8X8X8X$.*.$.C S N 8XS 8 0 | p f s 8 8 8 V V 8XF ;.8X8X8X8X8X8X8X8X8X8XV N 9 5 p F ] 8X8X8X8X] Y 8X8X8X8XV p 5 f N %.8X8X8X8X8X",
"8X8X8X8X*.[ R C I 8XD F 9 ` U 8X! Z 9 s s P P N E XX8X8X8X8X8X8X8X8X8XP D Z 9 8 9 D K 8X8X8X8X&.{ D 8X8X8XZ 9 - g Z P { 8X8X8X8X",
"8X8X8X..| [ J C P 8XU S C ~ 8XU { Q s s Z K J a E oX8X8X8X8X8X8X8X8XK Y J M 9 p u H U 8X8X8X8XN.] P U 8X8XK f 8Xs C J ! ( 8X8X8X",
"8X8X .t.| W W B F Q W D ! ~ 8X8Xm.u.C B K W Z f Z n.8X8X8X8X8X8XU Q ^ K J f V 8XN Z Q 8X8X8X%Xm.W J ^ ! 8X8XY 8XZ A J Q ~ 8X8X8X",
"8X8X_ 7.( ~ K C Z K ( J ^ 8X8X8XOXZ./ B W ~ Z Z Z ( a.8X8X8X8XQ ! ) K J B I 8X8X*.D | 8X8X%XoX~ W C ~ ~ 8X| ! Z 8XE V ~ ) 8X8X8X",
"8X8X9.7._ _ K J J J U J ^ 8X8X8X8X&Xs.K J W P J J P t.y.8X8X8X! J J N Z ! K 8XOXm./ _ 8X$XM.' ~ J H ( ` 8X_ ! U 8Xm.} H t. .8X8X",
"8X8Xi.8.7.r.W K K K K K ) 8X8X8X8X#X<Xy.R K ! W U ! K t.8X8X) J U U K ^ Q 8X8X+X..( s.C.a._ ~ K K U ( ( 8Xr.U } 8X8XM.U t.t.8X8X",
"8X8Xp.a.i.y.Q W ) r.Q ^ ^ i.8X8X8X8X4X*X0.K  .8X8X^ Q ^ y.y.^ U _ 8X8.( 8X8Xb.B.~ i.k.i.r.Q ^ ! W ) Q ( i.~ L u.8X8XC.t.` p.8X8X",
"8X8Xp.p.p.k.( Q l.c.8X` ~ w.8X8X8X8X+X3Xl.~ 9.s.8X8X) ~ ( t.~ i.8X8X8.8X8X8Xk.a._ k.k.y.~ ~ ) 8X) ~ ~ 8. .Q Q B.8X8X8Xa.9.8X8X8X",
"8X8Xl.l.k.x.7.Q Y.!.8X_ ` 9.8X8X8X8X8X:X_.' t.l.8X8X( ` ( ( z.B.8Xy.8X8X8Xe.V.+X9.l.p.( ( ` 8X8X( 8X( ` w.~ p.V.8X8X8Xi.i.8X8X8X",
"8X8X8Xc.k.c.p.( /..X8X8X` q.8X8X8X8X8X(. X0.q.H.8X8X8X8.8.8.).8X8X8X8X8X8Xf.,XZ.0.v.r.r.y.8X8X8X8X9.8.w.8Xx.l.8X8X8Xl.k.k.8X8X8X",
"8X8X8XL.x.c.K.9.z.2X8X8X8Xw.8X8X8X8X8X^.}.w.l.Y.8X8X8Xw.q.k.(.8X8X8X8X8X8Xl.<Xv.e.k.e.k.8X8X8X8X8Xk.w.l.8Xl.8X8X8X8Xd.l.8X8X8X8X",
"8X8X8X8X^.`.`.l.w.;X1X8X8X8X8X8X8X8X8XW.R.f.U.W.8X8X8X8Xw.H.U.8X8X8X8X8X8Xl.-XL.d.d.H.H.8X8X8X8X8Xc.l.g.8X8X8X8X8X8Xg.x.8X8X8X8X",
"8X8X8X8X8X2X3Xc.j.(.3X8X8X8X8X8X8X8X8XI.h.U.{.[.8X8X8X8Xg.J.U.8X8X8X8X8X8X8X^.P.g.g.Y.8X8X8X8X8X8XW.J.S.8X8X8X8X8X8Xc.c.8X8X8X8X",
"8X8X8X8X8X-X7X=XD.`.3X8X8X8X8X8X8X8X8X8Xh.|.}.U.8X8X8X8XJ.S.E.8X8X8X8X8X8X8X8XI.S.I.W.8X8X8X8X8X8X.X{.F.8X8X8X8X8XJ.P.H.8X8X8X8X",
"8X8X8X8X8X8X6X;XG. X8X8X8X8X8X8X8X8X8X8X{.}.8X8X8X8X8X8XR.I.Q.I.8X8X8X8X8X8X8XP.8XS.Q.8X8X8X8X8X8X>XW.8X8X8X8X8X8XR.I.J.J.8X8X8X",
"8X8X8X8X8X8X8XP.8X8X8X8X8X8X8X8X8X8X8X8X{.8X8X8X8X8X8X8XR.T.8XT.8X8X8X8X8X8X8X8X8X8XP.8X8X8X8X8X].].8X8X8X8X8X8X8XR.E.E.P.P.8X8X",
"8X8X8X8X8X8X8X8X8X8X8X8X8X8X8X8X8X8X8X8X8X8X8X8X8X8X8X8X8X8X8X8X8X8X8X8X8X8X8X8X8X8X8X8X8X8X8X8X8X8X8X8X8X8X8X8X8X8X8XE.8X8XP.8X",
"8X8X8X8X8X8X8X8X8X8X8X8X8X8X8X8X8X8X8X8X8X8X8X8X8X8X8X8X8X8X8X8X8X8X8X8X8X8X8X8X8X8X8X8X8X8X8X8X8X8X8X8X8X8X8X8X8X8X8X8X8X8X8X8X",
"8X8X8X8X8X8X8X8X8X8X8X8X8X8X8X8X8X8X8X8X8X8X8X8X8X8X8X8X8X8X8X8X8X8X8X8X8X8X8X8X8X8X8X8X8X8X8X8X8X8X8X8X8X8X8X8X8X8X8X8X8X8X8X8X",
"8X8X8X8X8X8X8X8X8X8X8X8X8X8X8X8X8X8X8X8X8X8X8X8X8X8X8X8X8X8X8X8X8X8X8X8X8X8X8X8X8X8X8X8X8X8X8X8X8X8X8X8X8X8X8X8X8X8X8X8X8X8X8X8X",
"8X8X8X8X8X8X8X8X8X8X8X8X8X8X8X8X8X8X8X8X8X8X8X8X8X8X8X8X8X8X8X8X8X8X8X8X8X8X8X8X8X8X8X8X8X8X8X8X8X8X8X8X8X8X8X8X8X8X8X8X8X8X8X8X",
"8X8X8X8X8X8X8X8X8X8X8X8X8X8X8X8X8X8X8X8X8X8X8X8X8X8X8X8X8X8X8X8X8X8X8X8X8X8X8X8X8X8X8X8X8X8X8X8X8X8X8X8X8X8X8X8X8X8X8X8X8X8X8X8X",
"8X8X8X8X8X8X8X8X8X8X8X8X8X8X8X8X8X8X8X8X8X8X8X8X8X8X8X8X8X8X8X8X8X8X8X8X8X8X8X8X8X8X8X8X8X8X8X8X8X8X8X8X8X8X8X8X8X8X8X8X8X8X8X8X",
"8X8X8X8X8X8X8X8X8X8X8X8X8X8X8X8X8X8X8X8X8X8X8X8X8X8X8X8X8X8X8X8X8X8X8X8X8X8X8X8X8X8X8X8X8X8X8X8X8X8X8X8X8X8X8X8X8X8X8X8X8X8X8X8X",
"8X8X8X8X8X8X8X8X8X8X8X8X8X8X8X8X8X8X8X8X8X8X8X8X8X8X8X8X8X8X8X8X8X8X8X8X8X8X8X8X8X8X8X8X8X8X8X8X8X8X8X8X8X8X8X8X8X8X8X8X8X8X8X8X",
"8X8X8X8X8X8X8X8X8X8X8X8X8X8X8X8X8X8X8X8X8X8X8X8X8X8X8X8X8X8X8X8X8X8X8X8X8X8X8X8X8X8X8X8X8X8X8X8X8X8X8X8X8X8X8X8X8X8X8X8X8X8X8X8X",
"8X8X8X8X8X8X8X8X8X8X8X8X8X8X8X8X8X8X8X8X8X8X8X8X8X8X8X8X8X8X8X8X8X8X8X8X8X8X8X8X8X8X8X8X8X8X8X8X8X8X8X8X8X8X8X8X8X8X8X8X8X8X8X8X",
"8X8X8X8X8X8X8X8X8X8X8X8X8X8X8X8X8X8X8X8X8X8X8X8X8X8X8X8X8X8X8X8X8X8X8X8X8X8X8X8X8X8X8X8X8X8X8X8X8X8X8X8X8X8X8X8X8X8X8X8X8X8X8X8X",
"8X8X8X8X8X8X8X8X8X8X8X8X8X8X8X8X8X8X8X8X8X8X8X8X8X8X8X8X8X8X8X8X8X8X8X8X8X8X8X8X8X8X8X8X8X8X8X8X8X8X8X8X8X8X8X8X8X8X8X8X8X8X8X8X"
};
