/* XPM */
static char *e1f8769f2389427bf71899028d7360cdMpcEHiEIlAMrb5Fe[] = {
/* columns rows colors chars-per-pixel */
"64 64 256 2 ",
"   c #010000",
".  c #050208",
"X  c #00011B",
"o  c #1B0000",
"O  c #280200",
"+  c #320000",
"@  c #00300F",
"#  c #000029",
"$  c #000235",
"%  c #00023B",
"&  c #000A3A",
"*  c #021839",
"=  c #302E2E",
"-  c #023E2D",
";  c #521000",
":  c #720900",
">  c #733603",
",  c #513417",
"<  c #00561A",
"1  c #004C07",
"2  c #006D16",
"3  c #005D25",
"4  c #004E2E",
"5  c #006729",
"6  c #007836",
"7  c #01702F",
"8  c #2D4C1F",
"9  c #00014C",
"0  c #000745",
"q  c #000053",
"w  c #00035A",
"e  c #031750",
"r  c #0F2A51",
"t  c #000566",
"y  c #021867",
"u  c #000577",
"i  c #011C77",
"p  c #002A6B",
"a  c #002566",
"s  c #01287A",
"d  c #00357A",
"f  c #2F3452",
"g  c #0E4E6A",
"h  c #1F5B5A",
"j  c #4E5149",
"k  c #5B7449",
"l  c #5E7B4A",
"z  c #5C7A47",
"x  c #556949",
"c  c #617D4B",
"v  c #607D47",
"b  c #63655B",
"n  c #4B536F",
"m  c #576C6A",
"M  c #6A716E",
"N  c #635951",
"B  c #664C0D",
"V  c #902F01",
"C  c #AA3300",
"Z  c #AE0600",
"A  c #C03D00",
"S  c #AC4A05",
"D  c #994203",
"F  c #D25005",
"G  c #E26008",
"H  c #88675B",
"J  c #E87E47",
"K  c #008907",
"L  c #00873B",
"P  c #019A36",
"I  c #048B2C",
"U  c #08AD2E",
"Y  c #1EAD2B",
"T  c #66A136",
"R  c #30CE38",
"E  c #26C60F",
"W  c #4CCB05",
"Q  c #72D800",
"!  c #67E032",
"~  c #008B44",
"^  c #009646",
"/  c #169950",
"(  c #02B44C",
")  c #2F9550",
"_  c #5F8349",
"`  c #479159",
"'  c #63844B",
"]  c #658B4B",
"[  c #688E4C",
"{  c #67924B",
"}  c #6A944C",
"|  c #6D9B4D",
" . c #679744",
".. c #709E4E",
"X. c #6C9451",
"o. c #6F9C51",
"O. c #689858",
"+. c #719D53",
"@. c #749A5A",
"#. c #688655",
"$. c #6EA24C",
"%. c #6DA445",
"&. c #71A44D",
"*. c #74AB4D",
"=. c #78AE4F",
"-. c #76B24D",
";. c #79B44E",
":. c #7BBC4E",
">. c #72A451",
",. c #75AB51",
"<. c #7AA95A",
"1. c #79B352",
"2. c #7CB556",
"3. c #6EA050",
"4. c #7B9A66",
"5. c #758F75",
"6. c #7DA563",
"7. c #76B470",
"8. c #53B259",
"9. c #0EC94B",
"0. c #26CB50",
"q. c #7DC96B",
"w. c #60D151",
"e. c #98E80A",
"r. c #B0E608",
"t. c #9EE730",
"y. c #C8EC30",
"u. c #81B85A",
"i. c #80AF5F",
"p. c #849976",
"a. c #83AB68",
"s. c #87B768",
"d. c #89A877",
"f. c #8DB674",
"g. c #94BC7C",
"h. c #91B779",
"j. c #8ECC51",
"k. c #8CC269",
"l. c #96C57A",
"z. c #96CD71",
"x. c #AFD67A",
"c. c #8AE853",
"v. c #C5E578",
"b. c #D7A47B",
"n. c #000590",
"m. c #022786",
"M. c #013689",
"N. c #013C9B",
"B. c #003995",
"V. c #0C3098",
"C. c #0432AE",
"Z. c #142E9E",
"A. c #01489B",
"S. c #0A4D8F",
"D. c #0046A6",
"F. c #0154A6",
"G. c #0055B9",
"H. c #0E47B2",
"J. c #0663B6",
"K. c #3369B5",
"L. c #2B5A9B",
"P. c #4B6A98",
"I. c #5072AE",
"U. c #5D6889",
"Y. c #0347C8",
"T. c #015BC7",
"R. c #0550D4",
"E. c #0267C9",
"W. c #0067D7",
"Q. c #1076D4",
"!. c #2B65D2",
"~. c #006BE7",
"^. c #0173EB",
"/. c #0276E5",
"(. c #116BEE",
"). c #277AF7",
"_. c #3677FF",
"`. c #3167F5",
"'. c #2157EC",
"]. c #576AFD",
"[. c #4677FF",
"{. c #4D6FF9",
"}. c #6E6FFE",
"|. c #5363F1",
" X c #857AFF",
".X c #798A8A",
"XX c #7D88A5",
"oX c #198AFB",
"OX c #1796FD",
"+X c #0B8DF0",
"@X c #2787FB",
"#X c #3683FD",
"$X c #2895F3",
"%X c #10A4FE",
"&X c #1E84DC",
"*X c #7884F3",
"=X c #5C90E0",
"-X c #8B9B89",
";X c #899590",
":X c #8BA984",
">X c #94AA89",
",X c #98B787",
"<X c #9AB596",
"1X c #92AB91",
"2X c #A5BA98",
"3X c #A9B48A",
"4X c #899AAC",
"5X c #8DA7B1",
"6X c #ACB7AC",
"7X c #A49D85",
"8X c #9CC385",
"9X c #8CC385",
"0X c #A3C98A",
"qX c #AAC898",
"wX c #ACD395",
"eX c #AED491",
"rX c #B4C9A7",
"tX c #B8D5A7",
"yX c #BDCBB4",
"uX c #BAD2AF",
"iX c #BAE2A1",
"pX c #C2CDBB",
"aX c #C6D9B9",
"sX c #C1DEAF",
"dX c #CEE8BD",
"fX c #979FEF",
"gX c #B5C7CB",
"hX c #CBD7C4",
"jX c #D3DCCC",
"kX c #D7DDD4",
"lX c #C4CDC3",
"zX c #D4E6C9",
"xX c #DAE4D4",
"cX c #DEE3DB",
"vX c #DDE9D4",
"bX c #D9EFCB",
"nX c #E2EADC",
"mX c #E1E8DB",
"MX c #E4F3DA",
"NX c #E6EAE3",
"BX c #E9EEE6",
"VX c #ECEFE9",
"CX c #E3E7E1",
"ZX c #EAF3E4",
"AX c #EEF2EB",
"SX c #EDF9E5",
"DX c #F1F4EE",
"FX c #F3FAEC",
"GX c #F4F6F2",
"HX c #F6F9F4",
"JX c #F9FCF6",
"KX c white",
"LX c #FFFFFE",
"PX c #FDFEFD",
"IX c #FEFEFE",
"UX c #D3D7E0",
/* pixels */
"KXKXKXKXKXKXKXKXKXKXKXKXKXKXKXSXHXKXKXAXcXKXKXKXKXKXKXKXKXDXKXJXKXKXPXPXKXKXKXKXKXKXKXKXKXFXKXKXKXKXKXKXPXGXJXSXKXKXDXGXKXKXKXKX",
"KXKXKXKXKXPXFXAXKXKXKXKXKXJXPXMXFXKXJXrXhXNXnXKXKXGXHXJXGXMXcXAXGXJXnXAXKXHXKXKXKXKXGXGXKXMXHXPXGXJXDXKXPXAXBXFXPXJXxXKXKXKXKXKX",
"KXKXKXKXFXZXbXdXJXNXmXJXKXAXhXqXvXPXrXqXpXa.yXdXZXGXjXAXbXpX6XKXPXvX8XaXnXvXPXJXSXFXpXaXmXMXaXwXSXjXFXBXsXDXzXSXFXpXGXPXJXKXKXKX",
"KXKXKXKXZXaXeXk.sXqXl.jXFXrXuXa.8XwXa.g.a.f.,Xa.g.ZXhXwXtX2X,XMXSXpX%.g.wXtXtXzXmX0X0XaXeXrX2X0XrXwXbXrXg.kXzXbXqXhXAXhXCXKXKXKX",
"KXKXPXFXvX8X8Xk.<.d.f.g.g.;.a.s.i.s.<.2.6.l.,X} >.uX,X1.,Xf.l.wXtX,.<.a.s.<.f.tXqX+.a.0XqX} s.f.@.g.f.s.g.,XrXl.i.8Xi.yXnXkXDXKX",
"KXKXJXmXzXd.{ 3.] -.&.|  .} ' >.{ l *.| &.=. ...*. .] &.&.] { _  .;.>...| _ :.1.:.| ....+.| | } +.X.| } +.| X.] +.%.<.tX>XVXKXKX",
"KXKXKXFXdXl._ ' } v } &.} *.&.+.z l { } >.} { } | | } ..&.] *.&.' | | l 1.{ *.;.=.} $.$.] } } ' *.' v | ..] *.| } } ;.s.ZXKXKXKX",
"KXKXHXMXtX%.{ { ] ' *.| ;.] k | ] { $._ &.$.[ ] &.=.,.| &.| -.&.&.] } ,.-.&.{ *.&.] ;.+.X.a.k.+.&.v ] [ } :.&.| =.$.o.uXyXjXJXKX",
"KXKXcXaXtXh.&.| ' ' *.' ....v ..l l | } *.] &...:.>.o.} | $.;.l *.&.{ { } $.] | | } | ,Xm u n <X>. .{ ' *.*.N ..&.$.2.rXCXVXHXPX",
"KXKXBXrXl.k.*...| [ ..%.' *.' :...' | | -.&.] *.$.| >.} &.$.' | | | $.|  .| } | } l -Xw t u C.R.<X-.,.>.&.| } [ :.] 6.sXzXvXHXPX",
"KXKXKXjX2Xf. .] [ ] | *.' &.&.| :.*.' | } [ X.&.x | ] | &.] $.1.l *.:.$.&.;.-.| ..s.n u m.C.R.W.R.1XX.X.' } @.@.&.$.1.z.hXKXPXPX",
"KXKXFXuXs.$.| ' ....&.u.&.| } :.-.| | | ,.l *.| ' } ' | ] >.' ] ] {  .$.*.' %.' { >X9 i G.~.~.Y.R.I.<X<X<X<X;X7Xh.a.0Xz.uXBXKXKX",
"KXAXNXzXi.&.&.| >.*.] %.-.{ | =.-.| &.>.&.} ..{ ] &.' :.=.>.] } | { ' } $.*.:.*.,.M 9 s G.~.~.(.)._.`.`.|.].}. X}.*X5XyXnXKXKXKX",
"KXHXaXuXh.+.&.*.}  ...u.&.+.} -.;.$.&.} *._ *.| | l l ;.&.&.$.| ' } ] | ] z *.&.s.f q V.N.W.^.oX#X[.{.].].fX XfX}.}.`.Y.gXVXKXKX",
"KXKXHXGXMX:.{ O.s.a.f.f.i.] l | ] +.} ' &.} &.*.] } | | 1._ &.$.| &.&.&.| $.} &.p.9 w M.N.T.^.oX).`.{.{.].}.*X*X}.].[.'.Y.gXGXKX",
"KXKXGXqX7. .h.XXI.A.d a n .X>X4.c ' ] { } =.&.&.} } &.k $.} >.3.*._ l } x | { k d.9 t B.D.T.~.).@X_._.[.{.].].}.].].[.`.Y.XXKXKX",
"KXAXcXjXh.k.$X%X+XG.A.d y w % r ;Xp...&.} ] *.&.[ | } &.1.&.3.>.] ' &.,.*.&.$.| f.f i T.~.^.~.~.(.)._._.#X].].{.[.#X_.(.Y.4XPXPX",
"PXJXPXMX0XgX%X$XQ.J.F.S.a a a a $ $ >Xs.*.] ' :.&...[ k | &.' | =.] { ] ] | >.$.u.U.m./.^.^.~.~.~.R.).#X#X_.[.[.[.#X#XR.H.UXPXPX",
"KXKXVXrXtX$X+X+X&XE.F.g a p a a a &   f ,X&...*.[ ' *.} 1.&.X.{ v | | | } *.] &.} >Xt E./.^.^.~.~.(.oX@X#X_.#X#X#X#X).Y.I.NXPXPX",
"KXHXxXaXyX/.+X$X&XJ.A.p p a 0 e e & & #   d.] k -.[ ] ' &.$.] | c k { } | -.;.{ ] 5.r B.W.^.^.^./.oXOXoX@X@X@X@X#X@X(.V.4XaXmXAX",
"JXHXJXZXgXT.$X$X&XJ.d p p & & % & & $ % . = _ k } ..} { l =.] { k [ } ' ] v 1._ } ..-X9 B.D.G.T.W.^.+XoXoXoXoXoXoXoXH.n.yXnXPXPX",
"KXAXjXhX=XE.$X$XE.M.a a e $ $ $ % 9 . & 5.k _ } } { ' *.| | -.&.c ' | >.-.' =.$.' ..@.n w m.B.B.A.T.~.~.^.oXOX%XOX/.N.i mXnXGXPX",
"HXBXaXhXI.Q.$XQ.A.a 0 & # 0 m.e     5.a.:.o.x } | | | &.&.&.&.| | +.' x | &. .u.&. .d.n q u i B.A.N.~.^.^./.OX%XOXT.V.L.JXPXPXPX",
"KXKXGXjXD.Q.Q.A.p & 0 $ # 9 C.K.m d.,.| $.o.] _ $.&.} -.=.[ } =.' } -.&..... .&.} >XZ.n.y t u s N.N.T.^.^.^.+X%X+XG.m.n hXCXPXPX",
"KXAXxXhXN.G.F.s % y m.s # 0 N.!.5X{ { $.' ;.*.{ &.{ &.} [ | -.] ' ] ..| -.$.] X.5XC.C.Z.n.q w s A.N.W././././.+X^.D.i y pXFXKXKX",
"GXcXrX6Xm.A.d e m.L.H.m.0 $ m.Y.{.,X} | | | | =.| | { ] &.....] l | ' &.{ *.s.XXn.C.Y.n.9 7X;Xq m.B.T.T.F.F.J./.W.A.y q lXzXBXKX",
"PXPXHX;Xm.M.0 e m.Z.Z.Z..XX 9 V.H.!.g.{ *.=...{ { =.{ ,.*. .:.*.} >.$.-.@.3XL.t Z.Y.n.r 3X$.} >Xt m.M.M.d M.D.E.E.B.w q ;XPXKXKX",
"PXPXkXn y e d Z.H.H.U.g.f.=   w m.L.K.:X-...} ' | =.} 1.&.' | ] | :.o.,XM % 9 w m.u n d.>.{ ' | ,Xn t t t w s F.J.A.y 9 e jXKXKX",
"KXPXCXf % 0 i u m.7X@.} ,.M -Xr u P.:X.Xz.3.&.=.$.z ..-.| &.&.] 2.>X5.. # # $ & $ b d.=.=.-.=.| >.s.>Xr 0 q w s B.s y q q U.KXKX",
"KXPX6X& 0 q t .Xl.X.*.*...M g.-XM.V.;X;.:.,.f.a.} &.{ { l x | -.<.p.2Xa % # &   M 6.$.>.-.$.&.' | k } 5.>Xm $ 0 t t t % 9 6XKXKX",
"KXKX4X# . m >X,.+...} } ;.,Xu.i.P.!.=Xu.} 3.a.j.s.&.| | ' *.$.-.{ ,XL.e * * * j a.] =.| } ' ..v ..} v ' ] @.g.>X>X.X;X1XhXSXKXKX",
"KXKX6X;XrX6.o.>.' =.=.x ' ..%.&.1XR.|.p._ 3.=.x.j.:.&.&.| &.*.] h.H.S.e r -X.X:X&.l =.| -.| *.[ [ ..} } v } *.] { } >.8XMXGXKXKX",
"KXKXGXZXwXk.&.,.j.&.{ { | | $.=.1XC.`.4X' | | x.r.,.;.{ { ] &.@.P.!.g r .X4.1X$.=.' } k =.{ { { k $...} [ ] ' =.$.&.-.zXZXJXPXPX",
"KXKXKXjX8X2.:.{ -.] X.&.| { *.-.d.C.'.fXc &.&.s.t.:._ { ..| [ 5.G.K.d 5.2.s.6.1.&.[ l ] -.&.} &...:.*.' { &.*.;.:.%.,XBXNXPXKXKX",
"KXKXJXaX8X2.$.$.-._ *.z { { :.>.a.P.'.].,X,.*.u.j.t.$.%.} } 7.J.K.g g f.} $.$.$.} } ]  .' 3.&.&.[ *.&.| ' ] ;.*.=.:.2.l.MXKXKXKX",
"KXKXJXbXl.1.&.$.3.] &.-.| ' >.{ +.XXR.|.<X,.[ [ q.e.` p.} 4.P.K.P.g 1X_ ] $.>.X.| &.] } $.| -.| { *.&.] &.| *.*.=.%.8XbXrXcXPXKX",
"KXKXKXVXqX$.] { l  .| } &.-.| $...;XG.|.5X..} ..q.! W :X' 4XF.K.g .X[  .} 3.] | | { ;.*.$.$.$.' ] &.| [ %.&...| ..*.&.f.zXZXPXPX",
"KXHXPXFXtXj.{ ' o.o.3.-.+.*.;.;.&.>XN.!.=XX.u.;.7.! W 9X:XF.L.h g d.} :.<.l $.&.| ] &.} { >.$.=.' v k ' ..*.{ | *.-. .0XMXJXGXGX",
"KXFXhXuX,X;.&.] *.2.;.-.,.| $.>.' ,Xp K.=X@.+.1.w.R E 9X;Xg h e d.s.0Xx.v.v.eX8X<. .*.| } &.$.] | #.x ' | | $.| | &.u.a.>XlXNXGX",
"KXJXAXwX2.| ;.| 1.:.{ _ } 3.| | >.d.4 S.K.d.| 6.P 0.R ` r g r - ,Xc.y.y.y.r.e.Q q.8X-.| { } ' ' ] &.| k | $.&.*.' &.a.s.sXJXKXKX",
"KXKXvXvXzXs.*.$.&.;.&.&.&.u.>.=.*.f.h 6 g ,X .7.K 9.0.I X * 2 R w.! t.Q t.x.8X8Xl.8.,X$.| | k >.| | ;.] | | $.$...} >.a.rXkXGXPX",
"KXJXFXMXtX+.>.2.g.0Xv.eX0Xg.8.-.| u.j Y h .X,.:XK ( 9.U   < 9.w.R W W 8Xf.} ' -.-.6.9Xd.} *.&.;.=.| &.| | _ { ] k } | @.<XjXAXGX",
"KXKXcXjX9X,.l.q.Q e.r.r.t.! 9Xl...X.M U I .X| p.K ( 9.P @ ( 0.U E w.8Xo.$.$.} ;.{ $.,.:X*.&.=...*.*.| } }  .| _ k | +.g.aXcXCXGX",
"HXKXDXrXbX8X,X,Xd.z.eXz.Q ! ! 8.,X .M 2 U m 2.M I ^ ( L ^ 9.( U Y 5.&.} z | >.o.&.{ $.<.a.{ } { *.$.*.*.| =.&._ ..} 4.0XkXGXPXPX",
"JXNXpX,X2.qX<.3.| } | <.9XW U 9.0.,Xp.@ 9.` 7.f 6 L ^ ~ ^ L P P d.#.&.=.} ' &.v ;.-.3.| a.,.| | ' | &.| ' &.;.=. .&.i.l.eXzXFXKX",
"KXKXKXkX,X<.-.,.| [ | | ..g.Y U ( q.M @ U ) f.@ ~ 6 ^ L 6 L P ,X$.] } } } -.] ' $._ | | #.&.| } v ..{ *.&.;.>.$.o.&.a.qXrXFXJXKX",
"KXKXKXFXbXk.$.' | =.] v &.=.:XU P P 4 . ^ / m < 6 7 ~ 7 5 I :X_ =.{ { >.| ] } ,.} l | 3.} | _ } ] k &.] | >.} *.| $.a.tXvXKXGXJX",
"KXKXKXJXJX,X .' | } | } &.{ &.<XK L ~ @ 6 ~ 4 < 5 3 ^ 7 7 ) f.' =.| &.-.&.' $.&.&.;.&.&.| } &.*.} { &.} { l $.&.] ,.&.T qXkXDXKX",
"KXKXGXzXh.@.} } 3.&.| | } -.&.>.7.7 ~ 5 7 6 6 < < 3 L 5 2 1X] $.&.$.$.} | &.*.{ *.=.{ | } &.| &.| ] &.| } v ] &.} -.%.0XrXDXKXKX",
"KXJXzX6.T | o._ | &.} | $.$.X.o.:XI 7 6 4 6 6 3 < 5 ~ 2 ) a.#.| $.:.&.' ] [ ;.| ..>.-...>.] ,.v } >.&.] | ' } [ } ,.*.iXbXSXKXKX",
"KXKXJXMXtX>.o.$.3.] &.=.| $.] &.>.5.2 6 5 6 7 5 < < 7 8 -X6.1.| ] &.' l ' ] } ..' ;.[ ..} | ..{ &.| } *.{ ' ..o.&.&. .0XrXpXNXKX",
"KXKXJXBXvXg. .$.o.| } 3.{ -.$.=.' 8X1 6 3 7 3 4 @ > S F G J b.b.f.| } &.:.| k &.| &.] | | ,.] { } ' } | -...] ' ' } &.h.rXvXHXKX",
"KXKXDXtXj.>.$.3.&.&.] ] :.' ' ..} >X> D S S B < ; V C S G G G G G 7X@.+.} %.*.} &.} { ..'  .-.&.&.| *.&.&.-.&.' | $.$.a.8XbXJXKX",
"KXKXMX2Xl.*.*.*.{ &.-.l | =.} d.p.: V C S S A V V V : S C F F F F Z 7X[ ' ' *.} *.*.} | { } &.] ' | ' } } =.' c &.{ 4.2.0XvXKXKX",
"KXGXNXnXbXl.z { &.&.&.-.' $.d.O O ; ; ; > : S C + o O > V V C C V Z H @.] | | l } } ' z ] *.&...*.;...| k _ ] [ | _ ,XaXwXcXKXKX",
"KXJXkXqXh.>.{ { ] [ >.&.{ $.>X  . o O O ; O O           O ; : : : ; 3X=.$.' =.&.$.;.$.&.} &.&.*.&.{ | ;.| &.| c '  .<.iXMXnXPXKX",
"KXPXZXzXqX&.} } | =.} } | | ,.,Xj o   o   . j -Xd.p.b = = = = N p.p.;.[ [ %.[ ..[ o.| } | $. .&.&.] ..&.,.:.$.] | %.0XtXMXKXKXKX",
"KXKXJXmXs.%.] +.*.} | o.>.X.@.6.h.d.M j M >Xa.....u.f.d.h.2X3X4. .p.&...*.u.+.%.| o.} o.*.-.s.@.| *.-.&.-.>.:.3.*.| qXmXNXKXKXKX",
"KXKXmXqXuXh.<.>.s.s.,X1.>.s.f.s.p.s. .f.eXs.0Xi.g.x.g.a.a.+.,. .*.qXs.f.j.z.eX6.a.2.<.a.k.&.,Xa.f.s.a.>.k.&.h.qX8Xf.,XmXJXJXKXKX",
"KXGXZXVXlXrXtXi.l.dX0X8XpXhXhX2.aX2X| ,XaXeXh.0XdX3X2X2XqXi.<.rXtXs.f.jXf.2XMXyX6.0X,X<.a.d.rXd.g.rX1XuXtXdXqXrXwXsXhXNXKXKXKXKX",
"KXKXKXAXkXAXaXhXbXHXvX2XHXKXmXaXpX6XjXuXaXtXyXMXMXjXmXpXrXp.pXKXFXrX2XGXkXyXKXxXqX>XqXp.lX4.lXPXqXpXnXDXAXxXlXmXqXSXkXKXKXKXKXKX",
"KXKXKXKXPXGXhXKXJXKXHXkXHXPXcXHXhXkXPXDXvXpXPXPXPXPXBXAXNXlXVXGXPXpXlXNXZXNXVXHXJXjX,XyX6XyXKXPXjXnXGXPXKXJXDXKXkXJXGXKXKXKXKXKX",
"KXKXKXKXKXmXJXKXKXKXGXJXKXHXJXPXKXKXKXKXPXJXKXKXKXKXKXKXJXVXPXHXAXAXVXPXJXPXHXKXKXDXGXCXpXPXKXPXVXKXPXKXKXKXKXKXJXPXKXKXKXKXKXKX",
"KXKXKXKXJXJXKXKXKXKXPXKXKXKXKXKXKXKXKXKXKXKXKXKXKXKXKXKXKXKXKXKXKXKXJXKXKXKXKXKXKXKXKXCXPXKXKXPXPXKXKXKXKXKXKXKXPXPXKXKXKXKXKXKX"
};
