/* XPM */
static char *_3818c9e570e470d9337211fa24ead671mNG8H7ZffRa9VFD[] = {
/* columns rows colors chars-per-pixel */
"64 64 254 2 ",
"   c #010000",
".  c #360D03",
"X  c #00003B",
"o  c #091334",
"O  c #0E3232",
"+  c #4E0D00",
"@  c #50290E",
"#  c #723614",
"$  c #503730",
"%  c #0F4C37",
"&  c #0B6939",
"*  c #2B5534",
"=  c #6E512B",
"-  c #7C421B",
";  c #000148",
":  c #081946",
">  c #000357",
",  c #0C1C4C",
"<  c #17244B",
"1  c #02265D",
"2  c #172A55",
"3  c #18325A",
"4  c #082952",
"5  c #25345A",
"6  c #26354A",
"7  c #000465",
"8  c #011B67",
"9  c #001E78",
"0  c #022767",
"q  c #182B60",
"w  c #1B3866",
"e  c #002876",
"r  c #053779",
"t  c #103673",
"y  c #253A68",
"u  c #263B76",
"i  c #164E52",
"p  c #314A55",
"a  c #166B45",
"s  c #057946",
"d  c #177749",
"f  c #1D7C52",
"g  c #086949",
"h  c #2F7752",
"j  c #0D457A",
"k  c #24456C",
"l  c #274875",
"z  c #34477A",
"x  c #365978",
"c  c #2E516C",
"v  c #4C4D58",
"b  c #586C48",
"n  c #5E7B4A",
"m  c #5B7549",
"M  c #49684F",
"N  c #627C4E",
"B  c #4A556E",
"V  c #566A76",
"C  c #6E7473",
"Z  c #655A57",
"A  c #884C25",
"S  c #9A552C",
"D  c #915935",
"F  c #B46938",
"G  c #9A5523",
"H  c #A46F4C",
"J  c #C57538",
"K  c #649B38",
"L  c #1A8857",
"P  c #0D8950",
"I  c #258859",
"U  c #2E9152",
"Y  c #2A9661",
"T  c #37A25B",
"R  c #5F8349",
"E  c #4C9855",
"W  c #62844B",
"Q  c #658B4B",
"!  c #688E4C",
"~  c #618347",
"^  c #67924B",
"/  c #6A944C",
"(  c #6D9C4D",
")  c #689A45",
"_  c #6D9752",
"`  c #719D53",
"'  c #73985A",
"]  c #6C9152",
"[  c #6EA24C",
"{  c #6CA646",
"}  c #71A44D",
"|  c #74AB4D",
" . c #77B24D",
".. c #79B44E",
"X. c #7BBB4C",
"o. c #72A352",
"O. c #75AB51",
"+. c #7CAC5B",
"@. c #79A957",
"#. c #7BB454",
"$. c #68A953",
"%. c #4E8E67",
"&. c #7B9B65",
"*. c #708D77",
"=. c #50AD68",
"-. c #7DA564",
";. c #69AE6A",
":. c #51A44D",
">. c #78C56D",
",. c #84B85B",
"<. c #8BB64F",
"1. c #849B76",
"2. c #869570",
"3. c #83AB67",
"4. c #87B768",
"5. c #89A876",
"6. c #8CB575",
"7. c #92B47C",
"8. c #93BB78",
"9. c #92AF76",
"0. c #ADCD54",
"q. c #97C579",
"w. c #91C76C",
"e. c #A7CC6D",
"r. c #99CA50",
"t. c #ADA655",
"y. c #023783",
"u. c #04328A",
"i. c #293C87",
"p. c #001F80",
"a. c #074786",
"s. c #144A86",
"d. c #055498",
"f. c #17589B",
"g. c #12508F",
"h. c #384C88",
"j. c #395687",
"k. c #3D5396",
"l. c #2C4A91",
"z. c #2A659D",
"x. c #3A6694",
"c. c #125DA2",
"v. c #2F5DA7",
"b. c #196AA8",
"n. c #2569A6",
"m. c #2773AC",
"M. c #376AB5",
"N. c #2D76B4",
"B. c #3B7BBC",
"V. c #357AB9",
"C. c #336FAC",
"Z. c #445887",
"A. c #475A94",
"S. c #4C5890",
"D. c #536899",
"F. c #536F91",
"G. c #6A788E",
"H. c #4E5FA7",
"J. c #556AAA",
"K. c #4578BA",
"L. c #5170AC",
"P. c #637BA7",
"I. c #6778B7",
"U. c #387EC1",
"Y. c #517BC3",
"T. c #6879C6",
"R. c #737CD4",
"E. c #757AE1",
"W. c #3A83BB",
"Q. c #798788",
"!. c #788993",
"~. c #79AB82",
"^. c #4E85BA",
"/. c #7188AE",
"(. c #6D93A3",
"). c #3683C2",
"_. c #4888C5",
"`. c #5789CA",
"'. c #4A95CB",
"]. c #5B93CE",
"[. c #5695C9",
"{. c #5B8CD2",
"}. c #5995D2",
"|. c #4D99D1",
" X c #6489CC",
".X c #6295CD",
"XX c #688BD6",
"oX c #7788D8",
"OX c #6992D2",
"+X c #7A8ECC",
"@X c #51A0D6",
"#X c #6EA4D2",
"$X c #899789",
"%X c #8A9997",
"&X c #869093",
"*X c #8EAA86",
"=X c #93A98A",
"-X c #9CBB8B",
";X c #98B687",
":X c #8CA696",
">X c #94A895",
",X c #9CB596",
"<X c #A5B997",
"1X c #ABB78C",
"2X c #8E99AB",
"3X c #98ABAD",
"4X c #AABAA9",
"5X c #B2B0AD",
"6X c #9DC386",
"7X c #9FC090",
"8X c #A4C88B",
"9X c #A9C898",
"0X c #AFD098",
"qX c #B4CAA7",
"wX c #B8D6A7",
"eX c #BCC9B5",
"rX c #B3CBAE",
"tX c #BAE2A1",
"yX c #C2CBBB",
"uX c #C5D9B8",
"iX c #C1DEAF",
"pX c #C9E4B9",
"aX c #868ADA",
"sX c #8595D9",
"dX c #8E97D2",
"fX c #97A6D1",
"gX c #9390E7",
"hX c #98A6E3",
"jX c #A3A3E1",
"kX c #BDC1CD",
"lX c #CCDAC4",
"zX c #CAD4C4",
"xX c #D3DBCC",
"cX c #D7DBD3",
"vX c #C8D0CD",
"bX c #D4E5C9",
"nX c #DAE3D4",
"mX c #DDE7D7",
"MX c #D8EFCA",
"NX c #E2E9DC",
"BX c #E4F4D9",
"VX c #E8ECE6",
"CX c #EBF3E4",
"ZX c #EEF2EB",
"AX c #EDF8E6",
"SX c #F1F4EE",
"DX c #F3FAED",
"FX c #F9FEEF",
"GX c #F4F6F2",
"HX c #F6F9F4",
"JX c #F9FCF6",
"KX c #FEFFFE",
"LX c #F7F7F9",
"PX c #EEF0F1",
/* pixels */
"KXKXKXKXKXKXKXKXKXKXKXKXKXKXKXDXHXKXKXGXkXI.I.vXLXKXKXKXKXZXKXJXKXKXKXKXKXKXKXKXKXKXKXKXKXFXKXKXKXKXKXKXKXGXJXAXKXKXGXGXKXKXKXKX",
"KXKXKXKXKXJXDXZXKXKXKXKXKXJXJXBXDXKXJX2XL.T.oXoXdXkXPXLXDXVXmXPXLXJXNXZXKXHXKXKXKXKXGXGXKXBXGXKXGXJXGXKXLXZXCXSXKXJXnXKXKXKXKXKX",
"KXKXKXKXDXVXMXuXJXNXNXJXKXVXlX9XNXHXD.M.{.XXoXoXE.E.E.jXcXzX4XKXKXnXq.uXNXmXKXJXDXHXyXuXNXBXuX0XAXlXDXCXiXGXbXAXDXyXGXKXJXKXKXKX",
"KXKXKXKXCXpX0Xw.iXqXq.lXGXwXeX3.9XP.b.K. XXXXXoXE.oXE.R.T. XfXcXVXlX .7.0XwXqXMXMX8X8XlXwXuX<X8XqX0XMXqX8.nXbXMX9XlXCXlXVXKXKXKX",
"KXKXJXJXnX6X6Xw.@.5.8.8.8...3.4.3Xd.V._.{.XXXXXXXXXXoXXXXX{.{._.^.(.#X3X3X,X4XrX4X%XQ.V 5 X <X8.&.8.6.4.8.;XqXq.,.6X4.eXNXcXSXKX",
"KXKXJXNXbX6.^ ( !  .( [ ) / W ;Xd.U.V.}.}.{.{. X.X X{.{.].{.}.{.@X@X@XW.d.a.u.u.e 0 e r 8 ; 6.] ` ] ( ) o./ / ! ( [ @.wX=XZXKXKX",
"KXKXKXGXpX8.R Q / n ( ` ) } +.G.b.).U._.}.}.}.].]..X.X].].}.}.}.@X@X'.'.|.W.z.a.a.j j e ; $X( W | W n ( ` ! | ( ! / X.4.CXKXKXKX",
"KXKXHXBXwX{ ) ! Q W | / ..Q %Xd.U.).U.U.'.|.}.|._._.^.B.W.W.'.'.'.'.W.W.W.W.W.n.a.t 0 ; $X` X.} | m Q / / X.` ( O.[ ( qXyXxXJXKX",
"KXKXNXuXwX8.{ / W Q | W ` 9.a.b.W.N.W.W.W.W.V.x.z.x.n.z.z.z.C.N.W.W.W.a.j s.s.j r > > =X/ | | } } ) ^ W O.O.b ( | [ +.wXNXZXLXKX",
"KXKXVXrXq.w.| ` ( Q ( } ' G.a.m.m.V.V.N.z.s.s.x.C.C.C.B.W.W.W.C.g.j g.j 0 0 8 ; > *.1.} Q Q n ! O.| | | } ( ! / X.W 4.tXbXmXGXKX",
"KXKXKXxX4X4.) ! Q ! ( o.%Xr n.m.m.n.l.2 : : : < : , , 4 3 u l.x.j.0 4 > ; > V =X9. .} } N ! / } ( ( ! / R ] [ [ } [ +.w.lXKXKXKX",
"KXKXGXwX4.( / W ( ( | -Xr b.n.n.s.q 2 o o o o o < < 2 1 2 q y S.A.l z Q.>X2.@.Q ! !  .} | | Q ` | ( ( } } ^ n / [ } 6Xq.wXVXKXKX",
"KXGXVXlX4.{ } ( o.[ :Xj b.m.z.r Z.h.u < o o , < < 2 y u u u h.i.F.>X1.` ( | X.| | ( Q ! / | ~  .Q } / ~ | | | ( n W [ 0XVXKXKXKX",
"KXHXuXwX7.` } | o.:Xr g.z.a.1 j.D.J.S.8 X , < 2 3 u i.i.A.k.Z.>X' ! Q ( Q m | | | | Q _ =X&X=X4.} W Q W ( N }  .( } } 6.xXVXKXKX",
"KXKXHXGXBXX.W 5.!.y.r t r w z S.H.h.u >X;XX 2 q u i.A.J.J.L.;X( / | | } ( [ / ( W Q &.G.7 p.u.J.8.Q ! (  ./ | |  .} W ~ 5.zXGXKX",
"KXKXHX9X+.3.%Xr 7 1 1 0 w A.D.A.i.&X9.! / 1.; w i.h.J.I.OX+X4.` | n m ] b ( / m / @.&X9 y.s.K.M.P.2.m Q X.} | | ( ^  .-XeXHXKXKX",
"KXZXmXxX9Xy > 1 1 2 y h.h.h.i.G.$X] ( ( ( 3.B t l.H.T.+XsX+X-.} Q W (  .$.O.} ( ( =X7 s.f.M.M.v.v.2X' 3.5.4.3.` ` ) -XwXiXNXJXKX",
"KXJXKXNX0Xv > > 8 0 t u Z.Q.;X] | W ( | } ! >X7 k.L.oXsXsXdX&.$.| Q / Q Q ^ O.} ..$X7 u.C.U.K.K.Y.`.dXaXE.gXdXjXfX3X;XiXDXJXKXKX",
"KXKXZXqX6X9.=X=X$X>X;X;X2.^ ( ~ ! n ! ( | ( 3.Z.k.T.oXsXhXdX-.Q N / ( ( / | Q } ' B 8 g.v.M.B.{.XXXX XR.gXgXjXgXgXaXT.I.zXVXJXKX",
"KXLXnXuX0X` W | W / } ! { ../ { } N / ..| ! Q &Xk. XsXsXhXfX-.( n n ! / (  .../ 2.8 e g.f.n._.{.XXoXoXaXgXgXjXgXgXaXaXL.D.lXNXPX",
"JXJXJXCXwX{ ' 7X:X!.Q.*.=X;X-.[ ~ ( |  ./ m ^ $Xl.E.E.sXfXjX&./ m ! / Q Q R ..R 3.7 e f.f.n.U.{.XXXXoXoXoXgXgXsXgXoXoXT.M.2XKXKX",
"KXVXxXpX;X+.3X[.^.z.g.j 0 1 k Q.;X+.n } | N W ;Xl.T.oXaXsXjX6.} N W / }  .W O.[ 2.5 r n.M.V.B.Y.{.XXXXoXoXoXaXoXoXoXoXY.M.!.LXKX",
"JXVXlXyX9.9X@X.X^.F.x.x k k k 1 ; C *X/ X./ b *Xl.T.T.oX XjX;X/ ( ` Q b ( [ / ..@.V a.V.U.U.B.B.K.H.T.XXOXoXoXoXoXXXXXY.v.kXLXKX",
"KXKXHXzX8X#X}.[.^.C.x.j.k l l c k 4 X $X4.( Q >Xp.I.T.I.J.sX;X| W !  .} ( ( ( o./ %Xr N.B.U.U.B.U.K.{.}.OXXXOXoXXXXX XM.D.VXKXKX",
"KXZXnXpX9X_._..X[.K.x.c l k w 3 y 3 4 X B q.#.C G.J.T.H.H.I.4XQ ~ Q ` ( | [ Q ^ ! 5.7 z.B.B.U.U.V.}.].]. XXX.XOXOXOXY.d.2XAXKXKX",
"GXmXeX9X4Xm._..X^.F.x k c 3 3 3 3 2 3 6 ; v Q.F.&.!.H.h.!.3X2XQ n ( W | / | | ^ ( N G.9 f.n.M.U.B._.`.}.].]..X}.].{.C.u.kXxXVXKX",
"KXKXGXbX2Xm..X.X^.x.j c k < 2 < < 5 : X 5 X *.-./ *Xl.Z.D.3.,X4./ } }  ./ ....( | _ 1.q r g.f.f.n.M.B.K._.}.}.}.}._.f.u.nXKXKXKX",
"KXJXxX;X(.^..X^.x.l w 3 < 2 u 2 < X v *X4.-.] W ` *Xt F.2X] ` ' ` X./ { W ! |  .W / 2.V 9 r a.f.f.f.V.U.V.^.|.}.|.N.d.Z.MXAXKXKX",
"KXKXDXlXx.^.^.x.k 3 2 < < 5 A.A.6 5.' O.X.[ O.O.( ~.x (.3X} } ^ | / | ( b m } { ( 5.G.e t r y.g.f.f.M.).U.V.'.|.'.n.d.S.nXDXKXKX",
"KXKXDXzXg.L.x.l 3 3 z y , 5 A.I.:X| n ..X.o.[ ! Q *X^.fX3Xb (  .` ! | ( W ` ! b 7.J.l.A.u 8 9 y.f.f.N.U.U.W.).|._.c.y.z xXGXKXKX",
"KXKXKXvXa.x.x w l S.A.h., 6 h.J.+X8.$.X.( o.W ^ } *X/.hX5X$.` O./ | ( W n ( ] >XA.H.J.A.> V G.8 g.f.N.N.b.n.N.V.N.f.r 7 lXDXKXKX",
"KXKXAX%Xj j.k 3 l Z.k.l.B , y A.L.2X4.Q n }  .[ | >X/.hXrX(  .Q / ( } } / 5.&Xe i.J.k.7 $X3.3.Q.9 d.f.f.g.g.b.N.m.f.r 7 3XGXKXKX",
"KXKXPXG.u y u h.H.A.D.>X5.6 X z h.A./.-.Q / ( ..} :X+XhX4XQ ( ! } Q / 3.$Xy > u h.h.1 $X .^ ! _ $Xr y.r e r g.n.m.g.r 0 z VXKXKX",
"KXLXPXp 2 5 z Z.u &X5.} o.Z C 2 l F.*X!.] | | ( } :X+XjX4X( ! W  .5.$Xv X : 2 q 0 5 $X!  .| ^ | ( q.Q.> 7 0 t g.f.g.j 0 1 &XKXKX",
"KXKXkX6 3 y 0 V -X] [ n / C 6X$Xz h.$X/ ' | 9.,.Q !.sXfX;X/ ( } 3.*X>Xy 6 : < : 5 7.Q / n } } } ! | @.=XQ.1 > 7 r j r 7 > &XKXKX",
"KXKX3X: X 5 =X3.` W | O.( :X-.-.G.I.2X( ` O.9.9.-.!.+XdX;Xn ! / W &.Q.y < 6 2 o 9.[ Q / } (  ./ / | } ! } 5.;X$XQ.V V G.4XNXKXKX",
"KXKX2XB 3X4.] / n ( / / | | ( [ :XJ.oX2.Q _ / e.q.P.+XfX2.Q Q ( -.G.Z.5 i Q.C ;X( ^ ..| [ ( } W Q } / / } { ( ` o.+.@.7.xXBXKXKX",
"KXHXLXDXwXX./ W ( ( } ..` | ....;Xv.R.2X( _ | q.0.*.+XfX&.` [ 4./.L.V c C 1.*X@./ Q } _ ^ | ` O.W n m n (  ./ ( | | { 8XVXKXGXGX",
"KXAXuXyX-X .o.! O.#. . .o.( } ` 1.A.T.fX` W ( 4.0.4.(.fXN ( ! 3XL./.B V &.+.8.( ( ) | ( ^ } [ Q / W b Q / ( } ( / | ,.-.=XzXVXGX",
"KXJXDX0X#.[ O.( X.X.^ R / } ( ( 3.D.I.aX2.o.( 3.w.w.!.3X/ ` ,XD.P.F.c *X#.( Q Q ! X. ./ / / W Q ! | ( m ` ( } | Q } 4.3.iXJXKXKX",
"KXKXmXmXbX4.| } [  .| } o...} | O.!.L.R.,X( / ` 4.r.%.3X( w./.D.F.c ;X} / W ~ ( } Q ! ( ( ) m o.( } ..! ( ( [ } ( / o.3.qXcXLXKX",
"KXJXDXBXwX( | O.} / ) } ( O.|  ./ >XH.XX3XQ O.( 6.w.$.,XX.,Xx.!.x *.]  .} / W ..| / } Q / | o...| / } ( ( ~ ^ W m / ( ' ,XcXZXGX",
"KXKXNXxX6X|  .[ ! / } } <.( Q | } =Xj./.3X .( [ -.>.} ;X6.F.F.V p ;Xo.( } } )  .^ [ | / | } ..( |  ./ / / ( ( W b ( ` 8.uXNXNXLX",
"JXKXSXqXMX8.{ W ! |  .<.( ) ! } ( =Xl P./.4.O.O.;.>.$.8X%Xx V k $XN 6X1X1X0X8X6.| ^ ( ( ( / / / | ( | | ( | { Q ( / &.8XxXLXJXKX",
"HXVXeX-X+.,.( ` ( / ( ) ^ W O.( W 6.i F./.6.$.#.E =.;.;.c B p i =X6Xe.0.0.0.r.<.-Xw.[ / [ O.( / W ( | / W } ..O.( [ +.w.8XbXGXKX",
"KXKXKXnX5.{ O.| ( ! ( ( ` ( } | W 3.M h Z.;X( 6.d =.=.U O p * =.>.w.<.<.0.8X1X-X7.-.;X( R [ ( / ~ ( ) } [  .o.( _ { 5.qXwXDXJXKX",
"KXKXKXDXMX4.| Q 4.8X8X-X8X4.Q / _ 3.M %.c $X( *X& T =.U O * =.>.;.{ { 6X8.' / O.! &.>X6./ ( R / Q m } ! ( O.^ | ( ( 4.0XNXKXGXJX",
"KXKXKXJXHX,X@.;XX.<.0.0.e.q.8X-.W o.N E h $X( *.P Y T I % %.=.E :.$.6XX.} Q } } O.O.+.6X( ^ [ O./ Q o./ ^ n [ | Q O.| K 9XxXGXKX",
"KXJXHXbX7.3.;X,X6X6X8X4.<.#.>.~.-.$.C f :.C Q C P Y Y L L =.U E E 8.` / ( }  ./ | | ! @.&.} ) } ` Q } ) ! m / } /  .{ 8X0XZXKXKX",
"KXKXbX-.K ;X-.W / } / 3.;X{ :.=.~.5.$X% =.%.-.M f P Y L Y L Y P ;X .| ~ Q Q  .( ( }  .` 4.! O.~ / } } Q ( Q ! ! / | { tXBXZXKXKX",
"KXKXJXBXiX+.[ [ ` ^ $.| ( -X:.T T ;.*.% Y %.1.% L P Y P f L P ;XQ | Q n Q Q / ( W ../ ( _ ` ` ^ } ` / | / W ` ( } } ) 8XqXyXVXKX",
"KXKXLXCXNX7.( ` ` ( / [ ^ X.;XL I P g O L Y V & L f L d g P ~.} ( ( / } ..( m } _ | ! ( / | Q ^ / W / (  .( ! W Q / ( 8.qXmXDXKX",
"KXKXGXwXw.[ [ ( | } Q Q X.~ ~ =XP L L O f L a a d g I d s I 5...X.^ ( ( ) } | ! | ! ! ( ~ /  .` } /  .( | ..} W / [ [ -.8XMXGXKX",
"KXKXCX-Xw. . .| ^ (  .n (  ./ @.%.s I a a L h & a d I d s >X/ |  .W W Q n Q | / | | ( ( / / { ! Q ( N / / | W N O.( -.+.8XmXKXKX",
"KXGXVXBXMXq.m Q } } } ..W ( / ` ;XP f f a f f & a a I & I &.! b ( Q / / ! / ( ~ / / ~ n Q | } } |  .( { b n ! ! ( R -XuXqXmXKXKX",
"KXJXnX<X8.o.^ / Q ! ` | ! } / | ` !.g h a f d a & a h * 1.&.] ] | Q ..O.} W | ` ( ..{ } / } } | } / (  .( | ( N R ) +.tXMXBXKXKX",
"KXKXBXbX0X( ^ ^ ( | / / ( (  .| | ;X& h & d g a % = D F H J 5X1X3.~ | Q ! | Q ( / ` ( / ( ( ) ( } / ( } O.X.[ Q / { 8X0XCXKXKXKX",
"KXKXJXNX,.{ / ` | / ) ` ` / ' -.} 1X= = D D Z * # A S F J J J J H 1X<.( } <._ { / } / `  . .4._ / |  .[ | | X.` | ) 9XNXNXKXKXKX",
"KXKXNX9XeX*X+.o.4.4.8.+.o.4.6.6X2.# A D F F F - D A # S H S F F J G 1X9.X.q.0X-.3.+.O.4.4.( 7.3.6.4.-.o.w.[ 8.9X6X4.;XNXKXJXKXKX",
"KXHXVXZXuXqXwX3.6XpX8X8XzXuXlX$ . # # # = - D D + @ @ A A S A D S - D cXw.9XBXeX+.9X;X' ,.*XeX9.6.wX,XeXwXpX9XrX0XpXvXVXKXKXKXKX",
"KXKXKXZXcXAXuXlXMXHXBX<XGXKXcX  . @ @ @ $ @ + . .   . . @ # # # # + 5XLXnXyXJXnX9X=X9X1.yX2.zXJX9XyXNXSXZXmXzXmX9XAXmXKXKXKXKXKX",
"KXKXKXKXKXGXzXKXJXKXGXcXGXKXmXvXZ . . . . . Z cXPX5XC v $ $ $ H 5XzXyXVXZXVXZXLXJXlX,XeX4XeXKXKXxXVXGXKXKXJXSXKXcXJXGXKXKXKXKXKX",
"KXKXKXKXKXNXKXKXKXKXGXJXKXHXKXLXJX5XC Z H kXJXKXKXKXGXSXNXcXPXGXVXVXZXJXJXKXSXKXKXGXGXNXyXKXKXJXZXKXJXKXKXKXKXKXLXJXKXKXKXKXKXKX",
"KXKXKXKXJXHXKXKXKXKXKXKXKXKXKXKXKXKXKXKXKXLXKXKXKXKXKXLXKXKXLXKXLXLXJXKXKXKXKXKXKXKXKXVXKXKXKXKXKXKXKXKXKXKXKXKXKXKXKXKXKXKXKXKX"
};
